<svg width="100" height="100" viewBox="0 0 100 100" fill="none" xmlns="http://www.w3.org/2000/svg">
<g clip-path="url(#clip0_46_498)">
<path d="M50.7599 61.0276C58.8847 61.0276 65.4712 54.4411 65.4712 46.3163C65.4712 38.1915 58.8847 31.605 50.7599 31.605C42.6351 31.605 36.0486 38.1915 36.0486 46.3163C36.0486 54.4411 42.6351 61.0276 50.7599 61.0276Z" fill="#F09400"/>
<path d="M50.7583 67.3169C49.8936 67.3169 49.0412 67.3605 48.1996 67.4455C47.3579 67.5305 46.5306 67.6566 45.7162 67.8224C44.9018 67.9883 44.1001 68.1919 43.3171 68.4344C42.5341 68.6769 41.7675 68.9574 41.02 69.2726C40.2725 69.5877 39.546 69.94 38.8382 70.3236C38.1303 70.7072 37.4402 71.1217 36.7761 71.5697C36.1119 72.0176 35.4722 72.4983 34.8559 73.0065C34.2396 73.5147 33.6463 74.0519 33.0821 74.6162C32.5178 75.1805 31.9805 75.7694 31.4723 76.3856C30.9641 77.0019 30.4879 77.6461 30.0399 78.3103C29.592 78.9744 29.173 79.66 28.7894 80.3679C28.4058 81.0758 28.0579 81.8022 27.7428 82.5497C27.4277 83.2972 27.1472 84.0638 26.9047 84.8468C26.7442 85.365 26.6239 85.9022 26.4967 86.4344C26.4317 86.7065 26.3443 86.9705 26.2883 87.2459C26.1224 88.0603 25.9963 88.8877 25.9113 89.7293C25.8264 90.571 25.7827 91.4277 25.7827 92.2925C25.7827 92.7901 25.8297 93.2746 25.8581 93.7648C25.969 93.8262 26.0749 93.8949 26.1863 93.9555C26.8947 94.3408 27.613 94.7126 28.3415 95.0641C29.0699 95.4156 29.8068 95.7497 30.5543 96.0663C31.3018 96.383 32.0594 96.6814 32.8248 96.9621C33.5903 97.2429 34.3662 97.5032 35.1486 97.747C35.9309 97.9909 36.7184 98.2153 37.5166 98.4211C38.3149 98.6269 39.1205 98.8175 39.9335 98.9843C40.7465 99.1511 41.5679 99.2967 42.3947 99.4233C43.2215 99.55 44.0563 99.6571 44.8958 99.7426C45.7353 99.8281 46.5813 99.89 47.4324 99.9333C48.2835 99.9766 49.1383 99.9998 50 99.9998C50.8617 99.9998 51.7165 99.9766 52.5676 99.9333C53.4187 99.89 54.2647 99.8281 55.1042 99.7426C55.9437 99.6571 56.7785 99.55 57.6053 99.4233C58.4321 99.2967 59.2535 99.1511 60.0665 98.9843C60.8795 98.8175 61.6851 98.6269 62.4834 98.4211C63.2816 98.2153 64.0691 97.9909 64.8514 97.747C65.6338 97.5032 66.4097 97.2429 67.1752 96.9621C67.9406 96.6814 68.6982 96.383 69.4457 96.0663C70.1932 95.7497 70.93 95.4156 71.6585 95.0641C72.387 94.7126 73.1053 94.3408 73.8138 93.9555C74.4534 93.6076 75.0804 93.2436 75.7029 92.869C75.7072 92.6752 75.7339 92.4874 75.7339 92.2925C75.7339 91.4277 75.6903 90.571 75.6053 89.7293C75.5204 88.8877 75.3942 88.0603 75.2284 87.2459C75.1122 86.6753 74.9524 86.1208 74.7982 85.5652C74.7324 85.3279 74.689 85.0812 74.6164 84.8468C74.3739 84.0638 74.0934 83.2972 73.7783 82.5497C73.4631 81.8022 73.1153 81.0758 72.7317 80.3679C72.3481 79.66 71.9291 78.9744 71.4811 78.3102C71.0332 77.6461 70.5525 77.0019 70.0443 76.3856C69.5362 75.7694 68.9989 75.1805 68.4346 74.6162C67.8703 74.0519 67.2815 73.5147 66.6652 73.0065C66.0489 72.4983 65.4047 72.0176 64.7406 71.5697C64.0764 71.1217 63.3908 70.7071 62.6829 70.3235C61.975 69.94 61.2486 69.5877 60.5011 69.2725C59.7536 68.9574 58.987 68.6769 58.204 68.4344C57.421 68.1919 56.6193 67.9882 55.8049 67.8224C54.9905 67.6566 54.1631 67.5305 53.3215 67.4455C52.4799 67.3605 51.6231 67.3169 50.7583 67.3169Z" fill="#F09400"/>
<path d="M50 0C22.426 0 -1.76006e-07 22.426 0 50C1.05604e-06 77.574 22.426 100 50 100C77.574 100 100 77.574 100 50C100 42.5433 98.3482 35.4703 95.4102 29.1087C93.6523 30.4919 91.6041 31.4592 89.4191 31.9379C91.9353 37.4341 93.3481 43.5487 93.3481 50C93.3481 73.9789 73.9789 93.3481 50 93.3481C26.0211 93.3481 6.65632 73.9789 6.65632 50C6.65632 26.0211 26.0211 6.65189 50 6.65189C58.1381 6.65189 65.7452 8.88705 72.2439 12.7716C72.962 10.6566 74.149 8.73125 75.7162 7.13969C68.1985 2.61361 59.3985 0 50 0Z" fill="#F09400"/>
<path d="M86.2528 6.78491C84.8452 6.78482 83.4514 7.06199 82.151 7.60061C80.8505 8.13923 79.6689 8.92874 78.6736 9.92405C77.6782 10.9194 76.8887 12.101 76.3501 13.4014C75.8115 14.7019 75.5343 16.0957 75.5344 17.5033C75.5343 18.9109 75.8115 20.3047 76.3501 21.6052C76.8887 22.9056 77.6782 24.0873 78.6736 25.0826C79.6689 26.0779 80.8505 26.8674 82.151 27.406C83.4514 27.9446 84.8452 28.2218 86.2528 28.2217C87.6604 28.2218 89.0542 27.9446 90.3547 27.406C91.6552 26.8674 92.8368 26.0779 93.8321 25.0826C94.8274 24.0873 95.6169 22.9056 96.1555 21.6052C96.6942 20.3047 96.9713 18.9109 96.9712 17.5033C96.9713 16.0957 96.6942 14.7019 96.1555 13.4014C95.6169 12.101 94.8274 10.9194 93.8321 9.92405C92.8368 8.92874 91.6552 8.13923 90.3547 7.60061C89.0542 7.06199 87.6604 6.78482 86.2528 6.78491ZM86.3681 10.9756C86.6886 11.0233 86.977 11.1963 87.1699 11.4566C87.3628 11.7169 87.4445 12.0431 87.3969 12.3636V16.2084H91.2284C91.3822 16.2083 91.5345 16.2386 91.6765 16.2974C91.8186 16.3562 91.9477 16.4424 92.0564 16.5512C92.1651 16.6599 92.2514 16.789 92.3102 16.931C92.369 17.0731 92.3992 17.2254 92.3992 17.3791C92.3784 17.6607 92.2467 17.9226 92.033 18.1071C91.8193 18.2917 91.5411 18.384 91.2595 18.3636H87.3969V22.8337C87.3967 23.1512 87.2705 23.4556 87.046 23.6801C86.8215 23.9046 86.5171 24.0308 86.1996 24.031C85.8951 24.0154 85.6093 23.8796 85.4048 23.6535C85.2003 23.4273 85.0938 23.1293 85.1087 22.8248V18.3636H81.2417C81.0926 18.3637 80.945 18.3343 80.8072 18.2773C80.6695 18.2202 80.5443 18.1366 80.4389 18.0312C80.3335 17.9258 80.2499 17.8006 80.1928 17.6629C80.1358 17.5251 80.1064 17.3775 80.1065 17.2284C80.1163 17.0845 80.1543 16.9439 80.2185 16.8148C80.2826 16.6856 80.3716 16.5704 80.4804 16.4756C80.5891 16.3809 80.7154 16.3085 80.8522 16.2627C80.9889 16.2168 81.1333 16.1984 81.2772 16.2084H85.1087V12.235C85.1088 11.901 85.2416 11.5808 85.4777 11.3446C85.7139 11.1085 86.0342 10.9757 86.3681 10.9756Z" fill="#F09400"/>
</g>
<defs>
<clipPath id="clip0_46_498">
<rect width="100" height="100" fill="white"/>
</clipPath>
</defs>
</svg>
