<svg width="96" height="100" viewBox="0 0 96 100" fill="none" xmlns="http://www.w3.org/2000/svg">
<g clip-path="url(#clip0_53_29)">
<path d="M62.5745 66.8577C61.7683 66.9589 60.9585 67.0295 60.1469 67.0695C59.1677 67.0284 58.1907 66.9427 57.2193 66.8125C57.2892 67.5849 57.3374 68.3657 57.3374 69.1567C57.3374 70.0392 57.2922 70.9094 57.2054 71.7684C57.1185 72.6274 56.9894 73.4758 56.8199 74.3071C56.6504 75.1385 56.4392 75.9526 56.1913 76.7521C55.9434 77.5515 55.659 78.3365 55.3369 79.0998C55.0148 79.8631 54.6558 80.6064 54.2638 81.3294C53.8717 82.0524 53.447 82.7522 52.9892 83.4306C52.5314 84.1089 52.0429 84.7667 51.5236 85.3962C51.0044 86.0258 50.454 86.6291 49.8775 87.2056C49.3009 87.7822 48.6976 88.3326 48.0681 88.8518C47.4385 89.3711 46.7808 89.8596 46.1024 90.3174C45.424 90.7752 44.7242 91.1999 44.0012 91.592C43.2783 91.984 42.5349 92.343 41.7716 92.6651C41.0083 92.9872 40.2234 93.2715 39.4239 93.5195C38.6244 93.7674 37.8103 93.9786 36.979 94.1481C36.1476 94.3176 35.2993 94.4467 34.4402 94.5336C33.5812 94.6204 32.7111 94.6655 31.8286 94.6655C30.9461 94.6655 30.0725 94.6204 29.2134 94.5336C28.3544 94.4467 27.5096 94.3176 26.6782 94.1481C25.8468 93.9785 25.0292 93.7674 24.2298 93.5195C23.4303 93.2715 22.6489 92.9872 21.8855 92.6651C21.1222 92.343 20.3789 91.984 19.6559 91.592C18.9329 91.1999 18.2297 90.7752 17.5513 90.3174C16.8729 89.8596 16.2187 89.3711 15.5891 88.8518C14.9595 88.3326 14.3562 87.7822 13.7797 87.2056C13.2031 86.6291 12.6528 86.0258 12.1335 85.3962C11.6142 84.7667 11.1257 84.1089 10.6679 83.4306C10.2101 82.7522 9.78193 82.0524 9.38988 81.3294C8.99783 80.6064 8.64229 79.8631 8.3202 79.0998C7.9981 78.3365 7.71029 77.5515 7.46238 76.7521C7.21447 75.9526 7.00329 75.1385 6.83379 74.3071C6.66428 73.4758 6.53516 72.6274 6.44829 71.7684C6.36143 70.9094 6.31978 70.0392 6.31978 69.1567C6.31978 68.2743 6.36141 67.4007 6.44829 66.5416C6.53516 65.6826 6.66429 64.8377 6.83379 64.0064C7.0033 63.175 7.21447 62.3574 7.46238 61.5579C7.71029 60.7585 7.9981 59.977 8.3202 59.2137C8.64229 58.4504 8.99783 57.7071 9.38988 56.9841C9.78193 56.2611 10.2101 55.5579 10.6679 54.8795C11.1257 54.2011 11.6142 53.5468 12.1335 52.9173C12.6528 52.2877 13.2031 51.6844 13.7797 51.1079C14.3562 50.5313 14.9595 49.981 15.5891 49.4617C16.2187 48.9424 16.8729 48.4539 17.5513 47.9961C18.2297 47.5383 18.9329 47.1101 19.6559 46.7181C20.3789 46.326 21.1222 45.9705 21.8855 45.6484C22.6489 45.3263 23.4303 45.0385 24.2298 44.7906C25.0292 44.5427 25.8468 44.3315 26.6782 44.162C27.5096 43.9925 28.3544 43.8633 29.2134 43.7765C29.2488 43.7729 29.2857 43.7729 29.3211 43.7695C28.9662 42.6829 28.6694 41.5781 28.432 40.4598C28.357 39.8168 28.3014 39.1717 28.2653 38.5254C27.8879 38.569 27.5098 38.6106 27.1366 38.6678C26.6268 38.746 26.1238 38.8392 25.6224 38.9421C25.121 39.0451 24.6214 39.159 24.1291 39.286C23.6367 39.413 23.1495 39.5523 22.6669 39.7027C22.1844 39.8532 21.7082 40.0157 21.2361 40.1889C20.764 40.3622 20.2976 40.5457 19.8365 40.7411C19.3754 40.9365 18.9175 41.1424 18.4682 41.3593C18.0188 41.5762 17.5785 41.8023 17.1415 42.04C16.7045 42.2777 16.2735 42.5288 15.8496 42.7867C15.4256 43.0446 15.0061 43.3115 14.5958 43.5889C14.1855 43.8664 13.7832 44.1539 13.3872 44.4502C12.9913 44.7466 12.6013 45.0525 12.2203 45.3671C11.8393 45.6817 11.4674 46.0039 11.102 46.336C10.7367 46.6682 10.378 47.008 10.0289 47.3571C9.67981 47.7062 9.34001 48.0649 9.00785 48.4302C8.67569 48.7956 8.35348 49.1675 8.0389 49.5485C7.72432 49.9295 7.41839 50.3195 7.12205 50.7154C6.8257 51.1114 6.53821 51.5137 6.26075 51.924C5.9833 52.3343 5.71643 52.7538 5.4585 53.1777C5.20058 53.6017 4.94955 54.0327 4.71182 54.4697C4.47409 54.9067 4.24802 55.347 4.03112 55.7963C3.81423 56.2457 3.60834 56.7036 3.41294 57.1647C3.21754 57.6258 3.034 58.0922 2.86074 58.5643C2.68748 59.0364 2.52499 59.5126 2.37453 59.9951C2.22406 60.4777 2.08479 60.9649 1.95778 61.4572C1.83076 61.9496 1.71687 62.4492 1.61395 62.9506C1.51104 63.452 1.41776 63.9549 1.33959 64.4648C1.26142 64.9747 1.19787 65.4891 1.14511 66.0068C1.09235 66.5245 1.05026 67.0483 1.02355 67.5731C0.996846 68.0979 0.985352 68.6254 0.985352 69.1568C0.985352 69.6881 0.996917 70.2156 1.02355 70.7404C1.05026 71.2653 1.09235 71.7856 1.14511 72.3032C1.19786 72.8209 1.26143 73.3354 1.33959 73.8452C1.41776 74.3551 1.51104 74.8615 1.61395 75.3629C1.71687 75.8643 1.83076 76.3605 1.95778 76.8528C2.08479 77.3451 2.22407 77.8324 2.37453 78.3149C2.525 78.7975 2.68748 79.2771 2.86074 79.7492C3.034 80.2214 3.21754 80.6878 3.41294 81.1488C3.60834 81.6099 3.81423 82.0644 4.03112 82.5137C4.24802 82.9631 4.47409 83.4069 4.71182 83.8438C4.94955 84.2808 5.20058 84.7118 5.4585 85.1358C5.71643 85.5597 5.9833 85.9757 6.26075 86.386C6.53821 86.7963 6.8257 87.2021 7.12205 87.5981C7.41839 87.9941 7.72432 88.3805 8.0389 88.7615C8.35348 89.1425 8.67569 89.5179 9.00785 89.8833C9.34001 90.2487 9.67981 90.6039 10.0289 90.953C10.378 91.3021 10.7367 91.6418 11.102 91.974C11.4674 92.3062 11.8393 92.6319 12.2203 92.9464C12.6013 93.261 12.9913 93.5669 13.3872 93.8633C13.7832 94.1596 14.1855 94.4471 14.5958 94.7246C15.0061 95.002 15.4256 95.2689 15.8496 95.5268C16.2735 95.7848 16.7045 96.0323 17.1415 96.27C17.5785 96.5078 18.0188 96.7338 18.4682 96.9507C18.9175 97.1676 19.3754 97.377 19.8365 97.5724C20.2976 97.7678 20.764 97.9513 21.2361 98.1246C21.7082 98.2979 22.1844 98.4603 22.6669 98.6108C23.1495 98.7613 23.6367 98.9005 24.1291 99.0276C24.6214 99.1546 25.121 99.2685 25.6224 99.3714C26.1238 99.4743 26.6268 99.5641 27.1366 99.6423C27.6465 99.7204 28.1609 99.7875 28.6786 99.8402C29.1963 99.893 29.7201 99.9316 30.2449 99.9583C30.7697 99.985 31.2972 100 31.8286 100C32.3599 100 32.8874 99.9851 33.4122 99.9583C33.9371 99.9316 34.4574 99.893 34.9751 99.8402C35.4927 99.7875 36.0072 99.7204 36.517 99.6423C37.0269 99.5641 37.5333 99.4743 38.0347 99.3714C38.5361 99.2685 39.0323 99.1546 39.5246 99.0276C40.0169 98.9005 40.5042 98.7613 40.9867 98.6108C41.4693 98.4603 41.9489 98.2979 42.4211 98.1246C42.8932 97.9513 43.3596 97.7678 43.8207 97.5724C44.2817 97.377 44.7362 97.1676 45.1855 96.9507C45.6349 96.7338 46.0787 96.5078 46.5157 96.27C46.9526 96.0323 47.3836 95.7848 47.8076 95.5268C48.2316 95.2689 48.6476 95.002 49.0579 94.7246C49.4681 94.4471 49.8705 94.1596 50.2664 93.8633C50.6624 93.5669 51.0524 93.261 51.4333 92.9464C51.8143 92.6319 52.1897 92.3062 52.5551 91.974C52.9205 91.6418 53.2757 91.3021 53.6248 90.953C53.9739 90.6039 54.3137 90.2487 54.6458 89.8833C54.978 89.5179 55.3037 89.1425 55.6182 88.7615C55.9328 88.3805 56.2388 87.9941 56.5351 87.5981C56.8314 87.2021 57.1189 86.7963 57.3964 86.386C57.6739 85.9757 57.9407 85.5597 58.1986 85.1358C58.4566 84.7118 58.7041 84.2808 58.9419 83.8438C59.1796 83.4069 59.4057 82.9631 59.6226 82.5137C59.8394 82.0644 60.0488 81.6099 60.2442 81.1488C60.4396 80.6878 60.6231 80.2214 60.7964 79.7492C60.9697 79.2771 61.1322 78.7975 61.2826 78.3149C61.4331 77.8324 61.5724 77.3451 61.6994 76.8528C61.8264 76.3605 61.9403 75.8643 62.0432 75.3629C62.1461 74.8615 62.2359 74.3551 62.3141 73.8452C62.3923 73.3354 62.4593 72.8209 62.512 72.3032C62.5648 71.7856 62.6034 71.2653 62.6301 70.7404C62.6568 70.2156 62.6718 69.6881 62.6718 69.1568C62.6718 68.6254 62.6569 68.0979 62.6301 67.5731C62.6179 67.3333 62.5922 67.096 62.5745 66.8577Z" fill="#F09400"/>
<path d="M60.1458 67.0702C77.9302 67.0702 92.3473 52.6531 92.3473 34.8687C92.3473 17.0843 77.9302 2.66724 60.1458 2.66724C42.3614 2.66724 27.9443 17.0843 27.9443 34.8687C27.9443 52.6531 42.3614 67.0702 60.1458 67.0702Z" stroke="#F09400" stroke-width="5" stroke-miterlimit="1000" stroke-linecap="round" stroke-linejoin="round"/>
<path d="M20.6402 54.955C19.6975 54.9607 18.7956 55.3404 18.1328 56.0108C16.752 57.4072 16.7644 59.6585 18.1606 61.0396L26.5894 69.3747L18.1606 77.7063C16.7621 79.0877 16.7496 81.3418 18.1328 82.7386C19.5138 84.1347 21.7652 84.1472 23.1616 82.7664L31.646 74.3757L40.1339 82.7664C41.5303 84.1472 43.7816 84.1347 45.1627 82.7386C46.5458 81.3418 46.5334 79.0877 45.1349 77.7063L36.7061 69.3747L44.3057 62.0433C41.339 59.1986 41.4992 59.5404 38.4755 56.8995L31.646 64.3736L23.1616 55.983C22.4908 55.3194 21.5838 54.9496 20.6402 54.955Z" stroke="#F09400" stroke-width="2" stroke-miterlimit="1000" stroke-linecap="round" stroke-linejoin="round"/>
<path d="M73.1841 22.483L54.3121 39.622L47.3245 32.0822C46.6834 31.3906 45.7938 30.9819 44.8514 30.946C43.909 30.9102 42.9909 31.2502 42.2992 31.8912C41.6075 32.5323 41.1988 33.4219 41.163 34.3643C41.1271 35.3067 41.4671 36.2248 42.1081 36.9166L51.4886 47.0367C52.1256 47.7244 53.0083 48.1328 53.9448 48.1731C54.8813 48.2134 55.7959 47.8824 56.4896 47.252L77.9663 27.7515C78.3121 27.4373 78.5927 27.0581 78.7919 26.6355C78.9911 26.2129 79.1051 25.7551 79.1274 25.2884C79.1496 24.8217 79.0797 24.3552 78.9216 23.9156C78.7635 23.4759 78.5203 23.0717 78.2059 22.7261C77.5721 22.0282 76.687 21.6105 75.7453 21.565C74.8036 21.5194 73.8824 21.8496 73.1841 22.483Z" stroke="#F09400" stroke-width="2" stroke-miterlimit="1000" stroke-linecap="round" stroke-linejoin="round"/>
</g>
<defs>
<clipPath id="clip0_53_29">
<rect width="94.0293" height="100" fill="white" transform="translate(0.985352)"/>
</clipPath>
</defs>
</svg>
