<svg width="120" height="120" viewBox="0 0 120 120" fill="none" xmlns="http://www.w3.org/2000/svg">
<path d="M37.5 75C31.2863 75 26.25 80.0363 26.25 86.25C26.25 92.4637 31.2863 97.5 37.5 97.5C43.7137 97.5 48.75 92.4637 48.75 86.25C48.75 80.0363 43.7137 75 37.5 75ZM37.5 90C35.4338 90 33.75 88.3162 33.75 86.25C33.75 84.1838 35.4338 82.5 37.5 82.5C39.5662 82.5 41.25 84.1838 41.25 86.25C41.25 88.3162 39.5662 90 37.5 90Z" fill="#F09400"/>
<path d="M37.5 71.25C43.7132 71.25 48.75 66.2132 48.75 60C48.75 53.7868 43.7132 48.75 37.5 48.75C31.2868 48.75 26.25 53.7868 26.25 60C26.25 66.2132 31.2868 71.25 37.5 71.25Z" fill="#F09400"/>
<path d="M37.5 22.5C31.2863 22.5 26.25 27.5363 26.25 33.75C26.25 39.9637 31.2863 45 37.5 45C43.7137 45 48.75 39.9637 48.75 33.75C48.75 27.5363 43.7137 22.5 37.5 22.5ZM37.5 37.5C35.4338 37.5 33.75 35.8162 33.75 33.75C33.75 31.6838 35.4338 30 37.5 30C39.5662 30 41.25 31.6838 41.25 33.75C41.25 35.8162 39.5662 37.5 37.5 37.5Z" fill="#F09400"/>
<path d="M93.75 30H56.25V37.5H93.75V30Z" fill="#F09400"/>
<path d="M93.75 56.25H56.25V63.75H93.75V56.25Z" fill="#F09400"/>
<path d="M93.75 82.5H56.25V90H93.75V82.5Z" fill="#F09400"/>
<path d="M37.5 75C31.2863 75 26.25 80.0363 26.25 86.25C26.25 92.4637 31.2863 97.5 37.5 97.5C43.7137 97.5 48.75 92.4637 48.75 86.25C48.75 80.0363 43.7137 75 37.5 75ZM37.5 90C35.4338 90 33.75 88.3162 33.75 86.25C33.75 84.1838 35.4338 82.5 37.5 82.5C39.5662 82.5 41.25 84.1838 41.25 86.25C41.25 88.3162 39.5662 90 37.5 90Z" fill="#F09400"/>
<path d="M37.5 71.25C43.7132 71.25 48.75 66.2132 48.75 60C48.75 53.7868 43.7132 48.75 37.5 48.75C31.2868 48.75 26.25 53.7868 26.25 60C26.25 66.2132 31.2868 71.25 37.5 71.25Z" fill="#F09400"/>
<path d="M37.5 22.5C31.2863 22.5 26.25 27.5363 26.25 33.75C26.25 39.9637 31.2863 45 37.5 45C43.7137 45 48.75 39.9637 48.75 33.75C48.75 27.5363 43.7137 22.5 37.5 22.5ZM37.5 37.5C35.4338 37.5 33.75 35.8162 33.75 33.75C33.75 31.6838 35.4338 30 37.5 30C39.5662 30 41.25 31.6838 41.25 33.75C41.25 35.8162 39.5662 37.5 37.5 37.5Z" fill="#F09400"/>
<path d="M93.75 30H56.25V37.5H93.75V30Z" fill="#F09400"/>
<path d="M93.75 56.25H56.25V63.75H93.75V56.25Z" fill="#F09400"/>
<path d="M93.75 82.5H56.25V90H93.75V82.5Z" fill="#F09400"/>
</svg>
