<svg width="100" height="100" viewBox="0 0 100 100" fill="none" xmlns="http://www.w3.org/2000/svg">
<path d="M56.0938 57.6562L55.7812 58.3594L55.9375 59.1406L59.375 72.3438L60.1562 75.625L62.8906 73.6719L74.2187 65.625L74.7656 65.2344L75 64.6094L96.4844 10.2344L97.3437 8.04688L95.1562 7.1875L81.4844 1.79688L79.375 1.01562L78.5156 3.04688L56.0938 57.6562ZM79.9219 6.09375L93.5938 11.4844L92.2656 8.51562L70.7812 62.8906L71.5625 61.875L60.2344 69.9219L63.75 71.25L60.4688 58.0469L60.3906 59.5312L82.8125 4.84375L79.9219 6.09375Z" fill="#F09400"/>
<path d="M85.1563 29.4532L74.6875 25.5469C73.9844 25.3125 73.6719 24.5313 73.9063 23.8282L74.6875 21.7969C74.9219 21.0938 75.7032 20.7813 76.4063 21.0157L86.875 24.9219C87.5782 25.1563 87.8907 25.9375 87.6563 26.6407L86.875 28.6719C86.6407 29.375 85.8594 29.6875 85.1563 29.4532ZM70.1563 63.0469L59.6875 59.1407C58.9844 58.9063 58.6719 58.125 58.9063 57.4219L59.6875 55.3907C59.9219 54.6875 60.7032 54.375 61.4063 54.6094L71.875 58.5157C72.5782 58.75 72.8907 59.5313 72.6563 60.2344L71.875 62.2657C71.6407 62.9688 70.8594 63.2813 70.1563 63.0469ZM87.9688 21.875L77.5 17.9688C76.7969 17.7344 76.4844 16.9532 76.7188 16.25L77.5 14.2188C77.7344 13.5157 78.5157 13.2032 79.2188 13.4375L89.6875 17.3438C90.3907 17.5782 90.7032 18.3594 90.4688 19.0625L89.6875 21.0938C89.4532 21.7969 88.6719 22.1875 87.9688 21.875Z" fill="#F09400"/>
<path d="M90.8594 94.2969H7.8125C4.76562 94.2969 2.34375 91.875 2.34375 88.8281V28.3594C2.34375 25.3125 4.76562 22.8906 7.8125 22.8906H64.0625C65.3906 22.8906 66.4062 23.9062 66.4062 25.2344C66.4062 26.5625 65.3906 27.5781 64.0625 27.5781H7.8125C7.42188 27.5781 7.03125 27.9687 7.03125 28.3594V88.8281C7.03125 89.2187 7.42188 89.6094 7.8125 89.6094H90.8594C91.25 89.6094 91.6406 89.2187 91.6406 88.8281V31.25C91.6406 29.9219 92.6562 28.9062 93.9844 28.9062C95.3125 28.9062 96.3281 29.9219 96.3281 31.25V88.8281C96.3281 91.875 93.9062 94.2969 90.8594 94.2969Z" fill="#F09400"/>
<path d="M35.7812 47.8906H19.6875C18.3594 47.8906 17.1875 46.7969 17.1875 45.3906C17.1875 44.0625 18.2813 42.8906 19.6875 42.8906H35.8594C37.1875 42.8906 38.3594 43.9844 38.3594 45.3906C38.2812 46.7969 37.1875 47.8906 35.7812 47.8906ZM40 57.0312H19.6875C18.3594 57.0312 17.1875 55.9375 17.1875 54.5312C17.1875 53.2031 18.2813 52.0312 19.6875 52.0312H40C41.3281 52.0312 42.5 53.125 42.5 54.5312C42.4219 55.9375 41.3281 57.0312 40 57.0312ZM43.125 66.0937H19.6875C18.3594 66.0937 17.1875 65 17.1875 63.5937C17.1875 62.2656 18.2813 61.0937 19.6875 61.0937H43.125C44.4531 61.0937 45.625 62.1875 45.625 63.5937C45.5469 65 44.4531 66.0937 43.125 66.0937Z" fill="#F09400"/>
</svg>
