<svg width="100" height="100" viewBox="0 0 100 100" fill="none" xmlns="http://www.w3.org/2000/svg">
<path d="M37.4999 20.8333H29.1666C24.5642 20.8333 20.8333 24.5642 20.8333 29.1666V79.1666C20.8333 83.7691 24.5642 87.4999 29.1666 87.4999H37.4999M62.4999 20.8333H70.8333C75.4357 20.8333 79.1666 24.5642 79.1666 29.1666V37.4999" stroke="#F09400" stroke-width="5" stroke-linecap="round" stroke-linejoin="round"/>
<path d="M62.0917 84.7262L52.9805 86.5483L54.8026 77.4375C54.9642 76.6308 55.3605 75.89 55.9421 75.3083L72.9167 58.3333L81.2501 50L89.5288 58.2788L81.1955 66.6121L64.2209 83.5867C63.6392 84.1683 62.8984 84.565 62.0917 84.7262Z" stroke="#F09400" stroke-width="5" stroke-linecap="round" stroke-linejoin="round"/>
<path d="M37.5 20.8333C37.5 16.231 41.231 12.5 45.8333 12.5H54.1667C58.7692 12.5 62.5 16.231 62.5 20.8333V29.1667H37.5V20.8333Z" stroke="#F09400" stroke-width="5" stroke-linecap="round" stroke-linejoin="round"/>
</svg>
