<svg width="84" height="83" viewBox="0 0 84 83" fill="none" xmlns="http://www.w3.org/2000/svg">
<rect x="2" y="1.5" width="80" height="80" rx="20" stroke="#F09400" stroke-width="3"/>
<g clip-path="url(#clip0_60_805)">
<path d="M43.4949 48.7917H29.9061L38.6022 40.0957L42.0001 42.7105L45.398 40.0942L47.7357 42.4319C48.2027 42.1845 48.6932 41.9842 49.1999 41.834L46.5632 39.1973L55.1251 32.6042V42.4042C55.6434 42.6619 56.1323 42.9748 56.5834 43.3375V32.0209C56.5819 31.4412 56.3509 30.8857 55.941 30.4758C55.5311 30.0659 54.9756 29.8349 54.3959 29.8334H29.6042C29.0246 29.8349 28.4691 30.0659 28.0592 30.4758C27.6493 30.8857 27.4183 31.4412 27.4167 32.0209V48.0625C27.4167 48.6427 27.6472 49.1991 28.0575 49.6093C28.4677 50.0196 29.0241 50.25 29.6042 50.25H43.4949C43.473 50.0094 43.4584 49.7673 43.4584 49.5209C43.4584 49.2744 43.473 49.0323 43.4949 48.7917ZM28.8751 47.7607V32.6057L37.437 39.1973L28.8751 47.7607ZM54.3959 31.2917C54.409 31.2917 54.4192 31.299 54.4324 31.299L42.0001 40.873L29.5678 31.299C29.5809 31.299 29.5911 31.2917 29.6042 31.2917H54.3959ZM51.4792 42.9584C49.7394 42.9603 48.0713 43.6523 46.841 44.8826C45.6107 46.1129 44.9187 47.781 44.9167 49.5209C44.9272 49.7651 44.9515 50.0086 44.9897 50.25C45.1653 51.85 45.9241 53.3292 47.1212 54.4052C48.3182 55.4812 49.8697 56.0786 51.4792 56.0834H52.2084V54.625H51.4792C50.255 54.6216 49.0729 54.1777 48.149 53.3743C47.2252 52.571 46.6214 51.462 46.448 50.25C46.406 50.0091 46.3817 49.7654 46.3751 49.5209C46.3744 48.5159 46.6706 47.5332 47.2264 46.6959C47.7823 45.8587 48.573 45.2043 49.4994 44.8149C50.4259 44.4254 51.4467 44.3183 52.4338 44.5069C53.4208 44.6955 54.3302 45.1715 55.0478 45.875H53.6667V46.6232C53.0393 46.1408 52.2707 45.8779 51.4792 45.875C50.8816 45.8733 50.2928 46.0186 49.7645 46.2979C49.2362 46.5773 48.7847 46.9823 48.4497 47.4772C48.1147 47.972 47.9065 48.5417 47.8434 49.1359C47.7803 49.7302 47.8643 50.3309 48.0879 50.8851C48.3115 51.4393 48.6679 51.93 49.1258 52.314C49.5836 52.6981 50.1289 52.9638 50.7135 53.0876C51.2981 53.2114 51.9042 53.1896 52.4785 53.0241C53.0527 52.8586 53.5775 52.5545 54.0065 52.1386C54.2577 52.5411 54.6332 52.8509 55.0762 53.0209C55.5191 53.191 56.0054 53.2121 56.4615 53.081C56.9175 52.95 57.3184 52.674 57.6036 52.2948C57.8887 51.9155 58.0425 51.4537 58.0417 50.9792V49.5209C58.0209 47.7869 57.3228 46.1297 56.0966 44.9035C54.8704 43.6773 53.2133 42.9792 51.4792 42.9584ZM51.4792 51.7084C51.0283 51.7069 50.5889 51.566 50.2213 51.3049C49.8536 51.0438 49.5758 50.6753 49.4259 50.25C49.3396 50.0165 49.2942 49.7698 49.2917 49.5209C49.2917 48.9407 49.5222 48.3843 49.9325 47.9741C50.3427 47.5638 50.8991 47.3334 51.4792 47.3334C52.0594 47.3334 52.6158 47.5638 53.026 47.9741C53.4363 48.3843 53.6667 48.9407 53.6667 49.5209C53.6643 49.7698 53.6189 50.0165 53.5326 50.25C53.3827 50.6753 53.1048 51.0438 52.7372 51.3049C52.3696 51.566 51.9302 51.7069 51.4792 51.7084ZM56.5834 50.9792C56.5834 51.1726 56.5066 51.3581 56.3698 51.4948C56.2331 51.6316 56.0476 51.7084 55.8542 51.7084C55.6609 51.7084 55.4754 51.6316 55.3386 51.4948C55.2019 51.3581 55.1251 51.1726 55.1251 50.9792V45.9523C56.0413 46.917 56.5618 48.1906 56.5834 49.5209V50.9792Z" fill="#F09400"/>
</g>
<defs>
<clipPath id="clip0_60_805">
<rect width="35" height="35" fill="white" transform="translate(24.5 24)"/>
</clipPath>
</defs>
</svg>
