<svg width="52" height="52" viewBox="0 0 52 52" fill="none" xmlns="http://www.w3.org/2000/svg">
<path fill-rule="evenodd" clip-rule="evenodd" d="M4.88867 13.2469C4.88867 8.55367 8.69332 4.74902 13.3866 4.74902H38.8804C43.5736 4.74902 47.3783 8.55367 47.3783 13.2469V38.7407C47.3783 43.4339 43.5736 47.2387 38.8804 47.2387H13.3866C8.69332 47.2387 4.88867 43.4339 4.88867 38.7407V13.2469ZM13.3866 8.99799C11.04 8.99799 9.13763 10.9003 9.13763 13.2469V38.7407C9.13763 41.0874 11.04 42.9897 13.3866 42.9897H26.1335V28.1183H24.009C22.8357 28.1183 21.8845 27.1672 21.8845 25.9938C21.8845 24.8205 22.8357 23.8694 24.009 23.8694H26.1335V20.6826C26.1335 16.576 29.4625 13.2469 33.5692 13.2469H34.8439C36.0172 13.2469 36.9683 14.1981 36.9683 15.3714C36.9683 16.5447 36.0172 17.4959 34.8439 17.4959H33.5692C31.8093 17.4959 30.3825 18.9227 30.3825 20.6826V23.8694H34.8439C36.0172 23.8694 36.9683 24.8205 36.9683 25.9938C36.9683 27.1672 36.0172 28.1183 34.8439 28.1183H30.3825V42.9897H38.8804C41.2271 42.9897 43.1293 41.0874 43.1293 38.7407V13.2469C43.1293 10.9003 41.2271 8.99799 38.8804 8.99799H13.3866Z" fill="white"/>
</svg>
