<svg width="200" height="61" viewBox="0 0 200 61" fill="none" xmlns="http://www.w3.org/2000/svg">
<g clip-path="url(#clip0_107_456)">
<path d="M73.6996 11.2386L89.4321 11.2386L89.4321 13.0524L78.8191 28.0529L89.4321 28.0529L89.4321 31.7085L73.4382 31.7085L73.4382 29.4846L83.8179 14.8661L73.6996 14.8661L73.6996 11.2386Z" fill="#FFFFFE"/>
<path d="M97.1496 13.2293C97.1496 16.0082 92.939 16.0082 92.939 13.2293C92.939 10.4504 97.1496 10.4504 97.1496 13.2293ZM93.2607 17.2348L93.2607 31.7085L96.8278 31.7085L96.8278 17.2348L93.2607 17.2348Z" fill="#FFFFFE"/>
<path d="M105.338 11.2708L105.338 31.7085L101.799 31.7085L101.799 11.2708L105.338 11.2708Z" fill="#FFFFFE"/>
<path d="M113.759 11.2708L113.759 31.7085L110.22 31.7085L110.22 11.2708L113.759 11.2708Z" fill="#FFFFFE"/>
<path d="M129.27 17.2911L132.692 17.2911L132.692 31.7045L129.33 31.7045L129.153 29.5972C128.333 31.2943 126.085 32.1107 124.476 32.1429C120.205 32.171 117.048 29.5409 117.048 24.4817C117.048 19.5111 120.354 16.9091 124.565 16.9372C126.495 16.9372 128.337 17.8421 129.157 19.2778L129.27 17.2911ZM120.615 24.4858C120.615 27.2325 122.518 28.8733 124.886 28.8733C130.501 28.8733 130.501 20.1304 124.886 20.1304C122.518 20.1304 120.615 21.739 120.615 24.4858Z" fill="#FFFFFE"/>
<path d="M148.071 31.7085L148.071 24.164C148.071 21.9722 146.872 20.3033 144.592 20.3033C142.4 20.3033 140.908 22.1452 140.908 24.3369L140.908 31.7045L137.369 31.7045L137.369 17.2589L140.554 17.2589L140.788 19.2174C142.252 17.7858 143.711 17.0538 145.525 17.0538C148.915 17.0538 151.638 19.5995 151.638 24.1318L151.638 31.7045L148.071 31.7045L148.071 31.7085Z" fill="#FFFFFE"/>
<path d="M168.026 29.8667C166.361 31.5035 164.604 32.1469 162.472 32.1469C158.29 32.1469 154.811 29.6334 154.811 24.514C154.811 19.3985 158.29 16.881 162.472 16.881C164.519 16.881 166.1 17.4641 167.676 19.0164L165.424 21.3852C164.575 20.6251 163.522 20.243 162.528 20.243C160.132 20.243 158.374 21.9964 158.374 24.514C158.374 27.2607 160.244 28.7246 162.468 28.7246C163.61 28.7246 164.748 28.4028 165.625 27.5261L168.026 29.8667Z" fill="#FFFFFE"/>
<path d="M173.379 25.7727C173.612 27.5583 175.164 28.8411 177.678 28.8411C178.993 28.8411 180.718 28.3425 181.539 27.4979L183.819 29.75C182.299 31.3305 179.813 32.0906 177.622 32.0906C172.651 32.0906 169.699 29.0221 169.699 24.4013C169.699 20.0138 172.683 16.8568 177.36 16.8568C182.186 16.8568 185.198 19.8408 184.639 25.7767L173.379 25.7767L173.379 25.7727ZM181.213 22.8208C180.98 20.9508 179.516 20.0138 177.469 20.0138C175.538 20.0138 173.958 20.9508 173.435 22.8208L181.213 22.8208Z" fill="#FFFFFE"/>
<path d="M191.637 17.2911L191.898 18.956C193.008 17.1745 194.5 16.9091 195.964 16.9091C197.456 16.9091 198.888 17.4922 199.676 18.2844L198.067 21.3851C197.335 20.7698 196.664 20.4481 195.494 20.4481C193.623 20.4481 191.898 21.4414 191.898 24.1037L191.898 31.7045L188.331 31.7045L188.331 17.2911L191.637 17.2911Z" fill="#FFFFFE"/>
<path d="M144.29 39.608C143.453 37.9035 141.67 37.4143 139.949 37.4143C137.914 37.4301 135.673 38.3612 135.673 40.6338C135.673 43.1116 137.756 43.7114 140.013 43.9797C141.48 44.1375 142.569 44.5636 142.569 45.6052C142.569 46.8047 141.338 47.2623 140.028 47.2623C138.687 47.2623 137.409 46.7257 136.919 45.5105L135.183 46.4101C136.004 48.4302 137.74 49.1246 139.997 49.1246C142.459 49.1246 144.637 48.0672 144.637 45.6052C144.637 42.9696 142.49 42.3699 140.186 42.0858C138.86 41.928 137.724 41.6597 137.724 40.697C137.724 39.8763 138.466 39.2293 140.013 39.2293C141.212 39.2293 142.254 39.829 142.632 40.4603L144.29 39.608ZM146.799 41.06V45.1475C146.799 47.5622 148.157 48.9668 150.019 48.9668C151.108 48.9668 151.849 48.588 152.654 47.7989L152.781 48.8563H154.501V41.06H152.591V45.0371C152.591 46.2207 151.786 47.215 150.602 47.215C149.372 47.215 148.724 46.3154 148.724 45.1317V41.06H146.799ZM160.829 47.1676C159.519 47.1676 158.62 46.1734 158.62 44.9582C158.62 43.7429 159.441 42.7486 160.829 42.7486C162.218 42.7486 163.039 43.7429 163.039 44.9582C163.039 46.1734 162.139 47.1676 160.829 47.1676ZM158.446 52.0917V47.9252C158.999 48.7774 160.214 49.0299 161.034 49.0299C163.528 49.0299 164.964 47.2308 164.964 44.9582C164.964 42.6698 163.37 40.8864 160.971 40.8864C160.087 40.8864 159.046 41.2651 158.446 42.1332L158.32 41.06H156.521V52.0917H158.446ZM171.009 47.1676C169.699 47.1676 168.799 46.1734 168.799 44.9582C168.799 43.7429 169.62 42.7486 171.009 42.7486C172.398 42.7486 173.218 43.7429 173.218 44.9582C173.218 46.1734 172.319 47.1676 171.009 47.1676ZM168.626 52.0917V47.9252C169.178 48.7774 170.393 49.0299 171.214 49.0299C173.708 49.0299 175.144 47.2308 175.144 44.9582C175.144 42.6698 173.55 40.8864 171.151 40.8864C170.267 40.8864 169.225 41.2651 168.626 42.1332L168.499 41.06H166.7V52.0917H168.626ZM180.541 40.9022C178.064 40.9022 176.517 42.7329 176.517 44.9582C176.517 47.1992 178.032 49.0141 180.557 49.0141C183.082 49.0141 184.613 47.1992 184.613 44.9582C184.613 42.7329 183.019 40.9022 180.541 40.9022ZM180.556 42.654C181.85 42.654 182.671 43.7903 182.671 44.9582C182.671 46.1418 181.961 47.2465 180.556 47.2465C179.152 47.2465 178.441 46.1418 178.441 44.9582C178.441 43.7903 179.167 42.654 180.556 42.654ZM186.253 41.06V48.8405H188.179V44.7372C188.179 43.301 189.11 42.7644 190.12 42.7644C190.751 42.7644 191.114 42.938 191.509 43.2695L192.377 41.5966C191.951 41.1705 191.178 40.8548 190.373 40.8548C189.584 40.8548 188.779 40.9968 188.179 41.9595L188.037 41.06H186.253ZM194.695 39.0714V41.0757H193.243V42.7329H194.695V46.0945C194.695 48.0357 195.8 48.9984 197.489 48.9352C198.073 48.9194 198.53 48.8248 199.083 48.6038L198.546 46.9625C198.262 47.1045 197.915 47.1992 197.615 47.1992C197.015 47.1992 196.605 46.8362 196.605 46.0945V42.7329H198.767V41.0757H196.621V38.8663L194.695 39.0714Z" fill="white"/>
<path d="M12.2279 0.5C5.47448 0.5 0 5.97448 0 12.7279V48.2721C0 55.0251 5.47448 60.5 12.2279 60.5H47.7721C54.5251 60.5 59.9996 55.0251 59.9996 48.2721V12.7279C59.9996 5.97448 54.5251 0.5 47.7721 0.5H12.2279Z" fill="url(#paint0_linear_107_456)"/>
<path d="M14.1874 6.95761C10.0437 6.95761 6.68433 10.3169 6.68433 14.4607C6.68433 18.6049 10.0437 21.9642 14.1874 21.9642H25.4772C29.621 21.9642 32.98 18.6049 32.98 14.4607C32.98 10.3169 29.621 6.95761 25.4772 6.95761H14.1874Z" fill="url(#paint1_linear_107_456)"/>
<mask id="mask0_107_456" style="mask-type:luminance" maskUnits="userSpaceOnUse" x="-274" y="-223" width="760" height="414">
<path d="M-273.302 -222.972H485.067V190.576H-273.302V-222.972Z" fill="white"/>
</mask>
<g mask="url(#mask0_107_456)">
<path d="M53.6486 46.5394C53.6486 50.6831 50.2892 54.0425 46.1454 54.0425C42.0017 54.0425 38.6423 50.6831 38.6423 46.5394C38.6423 42.3956 42.0017 39.0363 46.1454 39.0363C50.2892 39.0363 53.6486 42.3956 53.6486 46.5394Z" fill="white"/>
</g>
<mask id="mask1_107_456" style="mask-type:luminance" maskUnits="userSpaceOnUse" x="-274" y="-223" width="760" height="414">
<path d="M-273.302 -222.972H485.067V190.576H-273.302V-222.972Z" fill="white"/>
</mask>
<g mask="url(#mask1_107_456)">
<path d="M46.1455 6.95766H26.3793C30.4634 7.85467 32.2393 11.8531 32.2393 14.6306C32.2393 17.6337 30.1297 19.5288 30.1297 19.5288L27.6725 21.9639H27.7057L8.62559 40.7872C5.5929 43.8195 5.5929 48.7359 8.62559 51.7686C10.151 53.294 12.1532 54.0512 14.1526 54.0417C14.1644 54.0417 14.1759 54.0425 14.1874 54.0425H34.4682C30.7494 53.3133 28.0821 50.8419 27.9435 46.1053C27.8072 41.4634 34.5973 36.5088 40.7437 30.3008C46.3339 24.6553 52.1105 19.171 52.5652 18.347C53.1162 17.4484 53.6486 15.8835 53.6486 14.4608C53.6486 10.317 50.2893 6.95766 46.1455 6.95766Z" fill="white"/>
</g>
</g>
<defs>
<linearGradient id="paint0_linear_107_456" x1="53.304" y1="-9.55021" x2="3.28217" y2="76.417" gradientUnits="userSpaceOnUse">
<stop stop-color="#F29901"/>
<stop offset="0.15003" stop-color="#F29901"/>
<stop offset="0.663043" stop-color="#EFDB00"/>
<stop offset="0.836046" stop-color="#EFDB00"/>
<stop offset="1" stop-color="#EFDB00"/>
</linearGradient>
<linearGradient id="paint1_linear_107_456" x1="6.68431" y1="14.4608" x2="32.9802" y2="14.4608" gradientUnits="userSpaceOnUse">
<stop stop-color="white"/>
<stop offset="0.660842" stop-color="white"/>
<stop offset="1" stop-color="#E6E6E6"/>
</linearGradient>
<clipPath id="clip0_107_456">
<rect width="199.676" height="60" fill="white" transform="translate(0 0.5)"/>
</clipPath>
</defs>
</svg>
