<?xml version="1.0" encoding="UTF-8" standalone="no"?>
<svg
   width="266"
   height="145"
   viewBox="0 0 266 145"
   fill="none"
   version="1.1"
   id="svg14"
   sodipodi:docname="Frame 219.svg"
   inkscape:version="1.3 (0e150ed6c4, 2023-07-21)"
   xmlns:inkscape="http://www.inkscape.org/namespaces/inkscape"
   xmlns:sodipodi="http://sodipodi.sourceforge.net/DTD/sodipodi-0.dtd"
   xmlns="http://www.w3.org/2000/svg"
   xmlns:svg="http://www.w3.org/2000/svg">
  <sodipodi:namedview
     id="namedview14"
     pagecolor="#ffffff"
     bordercolor="#000000"
     borderopacity="0.25"
     inkscape:showpageshadow="2"
     inkscape:pageopacity="0.0"
     inkscape:pagecheckerboard="0"
     inkscape:deskcolor="#d1d1d1"
     inkscape:zoom="2.8909774"
     inkscape:cx="133"
     inkscape:cy="72.46684"
     inkscape:window-width="1920"
     inkscape:window-height="1009"
     inkscape:window-x="-8"
     inkscape:window-y="-8"
     inkscape:window-maximized="1"
     inkscape:current-layer="g12" />
  <g
     filter="url(#filter0_d_132_76)"
     id="g12">
    <path
       d="M 247.56836,30 H 12.931641 c -0.265224,0.415677 -0.540928,0.823993 -0.796875,1.246094 -0.541705,0.893364 -1.063337,1.799548 -1.5625,2.720703 -0.499164,0.921155 -0.9763598,1.857082 -1.431641,2.804687 -0.4552812,0.947605 -0.8887699,1.908146 -1.2988281,2.88086 -0.4100582,0.972714 -0.7966621,1.956643 -1.1601563,2.953125 -0.3634942,0.996482 -0.7039419,2.004528 -1.0195312,3.023437 -0.3155893,1.018909 -0.6067035,2.049849 -0.8730469,3.089844 -0.2663434,1.039995 -0.5068996,2.09065 -0.7226563,3.150391 -0.2157566,1.05974 -0.4064836,2.128887 -0.5703124,3.207031 -0.1638289,1.078144 -0.3015492,2.164558 -0.4121094,3.259765 -0.1105602,1.095208 -0.1940495,2.197664 -0.25,3.308594 C 2.7780338,62.755461 2.75,63.874689 2.75,65 c 0,1.125311 0.028034,2.244539 0.083984,3.355469 0.055951,1.11093 0.1394398,2.213386 0.25,3.308593 0.1105602,1.095208 0.2482805,2.181622 0.4121094,3.259766 0.1638288,1.078144 0.3545558,2.147291 0.5703124,3.207031 0.2157567,1.059741 0.4563129,2.110396 0.7226563,3.150391 0.2663434,1.039995 0.5574576,2.070935 0.8730469,3.089844 0.3155893,1.018909 0.656037,2.026955 1.0195312,3.023437 0.3634942,0.996482 0.7500981,1.980411 1.1601563,2.953125 0.4100582,0.972714 0.8435469,1.933255 1.2988281,2.88086 0.4552812,0.947605 0.932477,1.883532 1.431641,2.804687 0.499163,0.921155 1.020795,1.827339 1.5625,2.720703 0.541704,0.893365 1.104595,1.772484 1.6875,2.636724 0.582904,0.86423 1.185829,1.71311 1.808593,2.54687 0.622764,0.83376 1.264499,1.65313 1.925782,2.45508 0.661282,0.80194 1.342556,1.58668 2.041015,2.35547 0.69846,0.76879 1.414142,1.52156 2.148438,2.25586 0.734296,0.73429 1.487067,1.44997 2.255859,2.14843 0.768792,0.69846 1.553523,1.37974 2.355469,2.04102 0.801946,0.66128 1.621318,1.30302 2.455078,1.92578 0.83376,0.62276 1.682642,1.22569 2.546875,1.80859 0.864233,0.58291 1.743354,1.1458 2.636719,1.6875 0.893364,0.54171 1.799548,1.06334 2.720703,1.5625 0.921155,0.49917 1.857082,0.97636 2.804687,1.43165 0.947605,0.45528 1.908146,0.88876 2.88086,1.29882 0.972714,0.41006 1.956643,0.79667 2.953125,1.16016 0.996482,0.36349 2.004528,0.70394 3.023437,1.01953 1.018909,0.31559 2.049849,0.6067 3.089844,0.87305 1.039995,0.26634 2.09065,0.5069 3.150391,0.72265 1.05974,0.21576 2.128887,0.40649 3.207031,0.57032 1.078144,0.16383 2.164558,0.30155 3.259765,0.41211 1.095208,0.11056 2.197664,0.19405 3.308594,0.25 1.11093,0.0559 2.230158,0.084 3.355469,0.084 h 125 c 1.12531,0 2.24454,-0.028 3.35547,-0.084 1.11093,-0.0559 2.21338,-0.13944 3.30859,-0.25 1.09521,-0.11056 2.18162,-0.24828 3.25977,-0.41211 1.07814,-0.16383 2.14729,-0.35456 3.20703,-0.57032 1.05974,-0.21575 2.1104,-0.45631 3.15039,-0.72265 1.03999,-0.26635 2.07093,-0.55746 3.08984,-0.87305 1.01891,-0.31559 2.02696,-0.65604 3.02344,-1.01953 0.99648,-0.36349 1.98041,-0.7501 2.95313,-1.16016 0.97271,-0.41006 1.93325,-0.84354 2.88086,-1.29882 0.9476,-0.45529 1.88353,-0.93248 2.80468,-1.43165 0.92116,-0.49916 1.82734,-1.02079 2.72071,-1.5625 0.89336,-0.5417 1.77248,-1.10459 2.63671,-1.6875 0.86424,-0.5829 1.71312,-1.18583 2.54688,-1.80859 0.83376,-0.62276 1.65313,-1.2645 2.45508,-1.92578 0.80194,-0.66128 1.58668,-1.34256 2.35547,-2.04102 0.76879,-0.69846 1.52156,-1.41414 2.25586,-2.14843 0.73429,-0.7343 1.44997,-1.48707 2.14843,-2.25586 0.69846,-0.76879 1.37974,-1.55353 2.04102,-2.35547 0.66128,-0.80195 1.30302,-1.62132 1.92578,-2.45508 0.62276,-0.83376 1.22569,-1.68264 1.80859,-2.54687 0.58291,-0.86424 1.1458,-1.743359 1.6875,-2.636724 0.54171,-0.893364 1.06334,-1.799548 1.5625,-2.720703 0.49917,-0.921155 0.97636,-1.857082 1.43164,-2.804687 0.45529,-0.947605 0.88877,-1.908146 1.29883,-2.88086 0.41006,-0.972714 0.79667,-1.956643 1.16016,-2.953125 0.36349,-0.996482 0.70394,-2.004528 1.01953,-3.023437 0.31559,-1.018909 0.6067,-2.049849 0.87305,-3.089844 0.26634,-1.039995 0.5069,-2.09065 0.72265,-3.150391 0.21576,-1.05974 0.40649,-2.128887 0.57032,-3.207031 0.16383,-1.078144 0.30155,-2.164558 0.41211,-3.259766 0.11056,-1.095207 0.19405,-2.197663 0.25,-3.308593 0.0559,-1.11093 0.084,-2.230158 0.084,-3.355469 0,-1.125311 -0.028,-2.244539 -0.084,-3.355469 -0.0559,-1.11093 -0.13944,-2.213386 -0.25,-3.308594 -0.11056,-1.095207 -0.24828,-2.181621 -0.41211,-3.259765 -0.16383,-1.078144 -0.35456,-2.147291 -0.57032,-3.207031 -0.21575,-1.059741 -0.45631,-2.110396 -0.72265,-3.150391 -0.26635,-1.039995 -0.55746,-2.070935 -0.87305,-3.089844 -0.31559,-1.018909 -0.65604,-2.026955 -1.01953,-3.023437 -0.36349,-0.996482 -0.7501,-1.980411 -1.16016,-2.953125 -0.41006,-0.972714 -0.84354,-1.933255 -1.29883,-2.88086 -0.45528,-0.947605 -0.93247,-1.883532 -1.43164,-2.804687 -0.49916,-0.921155 -1.02079,-1.827339 -1.5625,-2.720703 C 248.10929,30.823993 247.83358,30.415677 247.56836,30 Z"
       style="fill:#ffffff"
       id="path15" />
    <path
       d="M 67.75,0 C 66.624689,0 65.505461,0.02803381 64.394531,0.08398437 63.283601,0.13993494 62.181145,0.22342418 61.085937,0.33398438 59.99073,0.44454457 58.904316,0.58226487 57.826172,0.74609375 56.748028,0.90992263 55.678881,1.1006496 54.619141,1.3164062 53.5594,1.5321629 52.508745,1.7727191 51.46875,2.0390625 c -1.039995,0.2663434 -2.070935,0.5574576 -3.089844,0.8730469 -1.018909,0.3155893 -2.026955,0.656037 -3.023437,1.0195312 -0.996482,0.3634942 -1.980411,0.7500981 -2.953125,1.1601563 -0.972714,0.4100582 -1.933255,0.8435469 -2.88086,1.2988281 -0.947605,0.4552812 -1.883532,0.9324773 -2.804687,1.4316406 -0.921155,0.4991633 -1.827339,1.0207955 -2.720703,1.5625 -0.893365,0.5417045 -1.772486,1.1045954 -2.636719,1.6875004 -0.864233,0.582904 -1.713115,1.185829 -2.546875,1.808593 -0.83376,0.622764 -1.653132,1.264499 -2.455078,1.925782 -0.801946,0.661282 -1.586677,1.342556 -2.355469,2.041015 -0.768792,0.69846 -1.521563,1.414142 -2.255859,2.148438 -0.734296,0.734296 -1.449978,1.487067 -2.148438,2.255859 -0.698459,0.768792 -1.379733,1.553523 -2.041015,2.355469 -0.661283,0.801946 -1.303018,1.621318 -1.925782,2.455078 -0.622764,0.83376 -1.225689,1.682642 -1.808593,2.546875 C 13.514775,29.065271 13.227755,29.53591 12.931641,30 H 247.56836 c -0.29611,-0.46409 -0.58313,-0.934729 -0.89063,-1.390625 -0.5829,-0.864233 -1.18583,-1.713115 -1.80859,-2.546875 -0.62276,-0.83376 -1.2645,-1.653132 -1.92578,-2.455078 -0.66128,-0.801946 -1.34256,-1.586677 -2.04102,-2.355469 -0.69846,-0.768792 -1.41414,-1.521563 -2.14843,-2.255859 -0.7343,-0.734296 -1.48707,-1.449978 -2.25586,-2.148438 -0.76879,-0.698459 -1.55353,-1.379733 -2.35547,-2.041015 -0.80195,-0.661283 -1.62132,-1.303018 -2.45508,-1.925782 -0.83376,-0.622764 -1.68264,-1.225689 -2.54688,-1.808593 -0.86423,-0.582905 -1.74335,-1.1457959 -2.63671,-1.6875004 -0.89337,-0.5417045 -1.79955,-1.0633367 -2.72071,-1.5625 C 222.86205,7.3231023 221.92612,6.8459062 220.97852,6.390625 220.03091,5.9353438 219.07037,5.5018551 218.09766,5.0917969 217.12494,4.6817387 216.14101,4.2951348 215.14453,3.9316406 214.14805,3.5681464 213.14,3.2276987 212.12109,2.9121094 211.10218,2.5965201 210.07124,2.3054059 209.03125,2.0390625 207.99126,1.7727191 206.9406,1.5321629 205.88086,1.3164062 204.82112,1.1006496 203.75197,0.90992263 202.67383,0.74609375 201.59568,0.58226487 200.50927,0.44454457 199.41406,0.33398438 198.31885,0.22342418 197.2164,0.13993494 196.10547,0.08398437 194.99454,0.02803381 193.87531,0 192.75,0 Z"
       style="fill:#a0a0a0"
       id="path14" />
    <path
       d="M85.3105 17.2549H87.9385C87.8857 18.1162 87.6484 18.8809 87.2266 19.5488C86.8105 20.2168 86.2275 20.7383 85.4775 21.1133C84.7334 21.4883 83.8369 21.6758 82.7881 21.6758C81.9678 21.6758 81.2324 21.5352 80.582 21.2539C79.9316 20.9668 79.375 20.5566 78.9121 20.0234C78.4551 19.4902 78.1064 18.8457 77.8662 18.0898C77.626 17.334 77.5059 16.4873 77.5059 15.5498V14.6621C77.5059 13.7246 77.6289 12.8779 77.875 12.1221C78.127 11.3604 78.4844 10.7129 78.9473 10.1797C79.416 9.64648 79.9756 9.23633 80.626 8.94922C81.2764 8.66211 82.0029 8.51855 82.8057 8.51855C83.8721 8.51855 84.7715 8.71191 85.5039 9.09863C86.2422 9.48535 86.8135 10.0186 87.2178 10.6982C87.6279 11.3779 87.874 12.1514 87.9561 13.0186H85.3193C85.29 12.5029 85.1875 12.0664 85.0117 11.709C84.8359 11.3457 84.5693 11.0732 84.2119 10.8916C83.8604 10.7041 83.3916 10.6104 82.8057 10.6104C82.3662 10.6104 81.9824 10.6924 81.6543 10.8564C81.3262 11.0205 81.0508 11.2695 80.8281 11.6035C80.6055 11.9375 80.4385 12.3594 80.3271 12.8691C80.2217 13.373 80.1689 13.9648 80.1689 14.6445V15.5498C80.1689 16.2119 80.2188 16.7949 80.3184 17.2988C80.418 17.7969 80.5703 18.2188 80.7754 18.5645C80.9863 18.9043 81.2559 19.1621 81.584 19.3379C81.918 19.5078 82.3193 19.5928 82.7881 19.5928C83.3389 19.5928 83.793 19.5049 84.1504 19.3291C84.5078 19.1533 84.7803 18.8926 84.9678 18.5469C85.1611 18.2012 85.2754 17.7705 85.3105 17.2549ZM89.1074 16.8418V16.6572C89.1074 15.96 89.207 15.3184 89.4062 14.7324C89.6055 14.1406 89.8955 13.6279 90.2764 13.1943C90.6572 12.7607 91.126 12.4238 91.6826 12.1836C92.2393 11.9375 92.8779 11.8145 93.5986 11.8145C94.3193 11.8145 94.9609 11.9375 95.5234 12.1836C96.0859 12.4238 96.5576 12.7607 96.9385 13.1943C97.3252 13.6279 97.6182 14.1406 97.8174 14.7324C98.0166 15.3184 98.1162 15.96 98.1162 16.6572V16.8418C98.1162 17.5332 98.0166 18.1748 97.8174 18.7666C97.6182 19.3525 97.3252 19.8652 96.9385 20.3047C96.5576 20.7383 96.0889 21.0752 95.5322 21.3154C94.9756 21.5557 94.3369 21.6758 93.6162 21.6758C92.8955 21.6758 92.2539 21.5557 91.6914 21.3154C91.1348 21.0752 90.6631 20.7383 90.2764 20.3047C89.8955 19.8652 89.6055 19.3525 89.4062 18.7666C89.207 18.1748 89.1074 17.5332 89.1074 16.8418ZM91.6387 16.6572V16.8418C91.6387 17.2402 91.6738 17.6123 91.7441 17.958C91.8145 18.3037 91.9258 18.6084 92.0781 18.8721C92.2363 19.1299 92.4414 19.332 92.6934 19.4785C92.9453 19.625 93.2529 19.6982 93.6162 19.6982C93.9678 19.6982 94.2695 19.625 94.5215 19.4785C94.7734 19.332 94.9756 19.1299 95.1279 18.8721C95.2803 18.6084 95.3916 18.3037 95.4619 17.958C95.5381 17.6123 95.5762 17.2402 95.5762 16.8418V16.6572C95.5762 16.2705 95.5381 15.9072 95.4619 15.5674C95.3916 15.2217 95.2773 14.917 95.1191 14.6533C94.9668 14.3838 94.7646 14.1729 94.5127 14.0205C94.2607 13.8682 93.9561 13.792 93.5986 13.792C93.2412 13.792 92.9365 13.8682 92.6846 14.0205C92.4385 14.1729 92.2363 14.3838 92.0781 14.6533C91.9258 14.917 91.8145 15.2217 91.7441 15.5674C91.6738 15.9072 91.6387 16.2705 91.6387 16.6572ZM102.203 13.959V21.5H99.6631V11.9902H102.045L102.203 13.959ZM101.852 16.4111H101.148C101.148 15.749 101.228 15.1396 101.386 14.583C101.55 14.0205 101.787 13.5342 102.098 13.124C102.414 12.708 102.804 12.3857 103.267 12.1572C103.729 11.9287 104.266 11.8145 104.875 11.8145C105.297 11.8145 105.684 11.8789 106.035 12.0078C106.387 12.1309 106.688 12.3271 106.94 12.5967C107.198 12.8604 107.397 13.2061 107.538 13.6338C107.679 14.0557 107.749 14.5625 107.749 15.1543V21.5H105.218V15.4355C105.218 15.002 105.159 14.668 105.042 14.4336C104.925 14.1992 104.758 14.0352 104.541 13.9414C104.33 13.8477 104.075 13.8008 103.776 13.8008C103.448 13.8008 103.161 13.8682 102.915 14.0029C102.675 14.1377 102.476 14.3252 102.317 14.5654C102.159 14.7998 102.042 15.0752 101.966 15.3916C101.89 15.708 101.852 16.0479 101.852 16.4111ZM107.512 16.1211L106.606 16.2354C106.606 15.6143 106.683 15.0371 106.835 14.5039C106.993 13.9707 107.225 13.502 107.529 13.0977C107.84 12.6934 108.224 12.3799 108.681 12.1572C109.138 11.9287 109.665 11.8145 110.263 11.8145C110.72 11.8145 111.136 11.8818 111.511 12.0166C111.886 12.1455 112.205 12.3535 112.469 12.6406C112.738 12.9219 112.943 13.291 113.084 13.748C113.23 14.2051 113.304 14.7646 113.304 15.4268V21.5H110.764V15.4268C110.764 14.9873 110.705 14.6533 110.588 14.4248C110.477 14.1904 110.312 14.0293 110.096 13.9414C109.885 13.8477 109.633 13.8008 109.34 13.8008C109.035 13.8008 108.769 13.8623 108.54 13.9854C108.312 14.1025 108.121 14.2666 107.969 14.4775C107.816 14.6885 107.702 14.9346 107.626 15.2158C107.55 15.4912 107.512 15.793 107.512 16.1211ZM117.936 11.9902V21.5H115.396V11.9902H117.936ZM115.237 9.51172C115.237 9.14258 115.366 8.83789 115.624 8.59766C115.882 8.35742 116.228 8.2373 116.661 8.2373C117.089 8.2373 117.432 8.35742 117.689 8.59766C117.953 8.83789 118.085 9.14258 118.085 9.51172C118.085 9.88086 117.953 10.1855 117.689 10.4258C117.432 10.666 117.089 10.7861 116.661 10.7861C116.228 10.7861 115.882 10.666 115.624 10.4258C115.366 10.1855 115.237 9.88086 115.237 9.51172ZM122.506 14.0205V21.5H119.975V11.9902H122.348L122.506 14.0205ZM122.137 16.4111H121.451C121.451 15.708 121.542 15.0752 121.724 14.5127C121.905 13.9443 122.16 13.4609 122.488 13.0625C122.816 12.6582 123.206 12.3506 123.657 12.1396C124.114 11.9229 124.624 11.8145 125.187 11.8145C125.632 11.8145 126.039 11.8789 126.408 12.0078C126.777 12.1367 127.094 12.3418 127.357 12.623C127.627 12.9043 127.832 13.2764 127.973 13.7393C128.119 14.2021 128.192 14.7676 128.192 15.4355V21.5H125.644V15.4268C125.644 15.0049 125.585 14.6768 125.468 14.4424C125.351 14.208 125.178 14.0439 124.949 13.9502C124.727 13.8506 124.451 13.8008 124.123 13.8008C123.783 13.8008 123.487 13.8682 123.235 14.0029C122.989 14.1377 122.784 14.3252 122.62 14.5654C122.462 14.7998 122.342 15.0752 122.26 15.3916C122.178 15.708 122.137 16.0479 122.137 16.4111ZM136.138 11.9902H138.432V21.1836C138.432 22.0508 138.238 22.7861 137.852 23.3896C137.471 23.999 136.938 24.459 136.252 24.7695C135.566 25.0859 134.77 25.2441 133.861 25.2441C133.463 25.2441 133.041 25.1914 132.596 25.0859C132.156 24.9805 131.734 24.8164 131.33 24.5938C130.932 24.3711 130.598 24.0898 130.328 23.75L131.444 22.2559C131.737 22.5957 132.077 22.8594 132.464 23.0469C132.851 23.2402 133.278 23.3369 133.747 23.3369C134.204 23.3369 134.591 23.252 134.907 23.082C135.224 22.918 135.467 22.6748 135.637 22.3525C135.807 22.0361 135.892 21.6523 135.892 21.2012V14.1875L136.138 11.9902ZM129.739 16.8594V16.6748C129.739 15.9482 129.827 15.2891 130.003 14.6973C130.185 14.0996 130.439 13.5869 130.768 13.1592C131.102 12.7314 131.506 12.4004 131.98 12.166C132.455 11.9316 132.991 11.8145 133.589 11.8145C134.222 11.8145 134.752 11.9316 135.18 12.166C135.607 12.4004 135.959 12.7344 136.234 13.168C136.51 13.5957 136.724 14.1025 136.876 14.6885C137.034 15.2686 137.157 15.9043 137.245 16.5957V17C137.157 17.6621 137.025 18.2773 136.85 18.8457C136.674 19.4141 136.442 19.9121 136.155 20.3398C135.868 20.7617 135.511 21.0898 135.083 21.3242C134.661 21.5586 134.157 21.6758 133.571 21.6758C132.985 21.6758 132.455 21.5557 131.98 21.3154C131.512 21.0752 131.11 20.7383 130.776 20.3047C130.442 19.8711 130.185 19.3613 130.003 18.7754C129.827 18.1895 129.739 17.5508 129.739 16.8594ZM132.271 16.6748V16.8594C132.271 17.252 132.309 17.6182 132.385 17.958C132.461 18.2979 132.578 18.5996 132.736 18.8633C132.9 19.1211 133.103 19.3232 133.343 19.4697C133.589 19.6104 133.879 19.6807 134.213 19.6807C134.676 19.6807 135.054 19.584 135.347 19.3906C135.64 19.1914 135.859 18.9189 136.006 18.5732C136.152 18.2275 136.237 17.8291 136.261 17.3779V16.2266C136.249 15.8574 136.199 15.5264 136.111 15.2334C136.023 14.9346 135.9 14.6797 135.742 14.4688C135.584 14.2578 135.379 14.0938 135.127 13.9766C134.875 13.8594 134.576 13.8008 134.23 13.8008C133.896 13.8008 133.606 13.877 133.36 14.0293C133.12 14.1758 132.918 14.3779 132.754 14.6357C132.596 14.8936 132.476 15.1982 132.394 15.5498C132.312 15.8955 132.271 16.2705 132.271 16.6748ZM150.024 18.8721C150.024 18.6904 149.972 18.5264 149.866 18.3799C149.761 18.2334 149.564 18.0986 149.277 17.9756C148.996 17.8467 148.589 17.7295 148.056 17.624C147.575 17.5186 147.127 17.3867 146.711 17.2285C146.301 17.0645 145.943 16.8682 145.639 16.6396C145.34 16.4111 145.105 16.1416 144.936 15.8311C144.766 15.5146 144.681 15.1543 144.681 14.75C144.681 14.3516 144.766 13.9766 144.936 13.625C145.111 13.2734 145.36 12.9629 145.683 12.6934C146.011 12.418 146.409 12.2041 146.878 12.0518C147.353 11.8936 147.886 11.8145 148.478 11.8145C149.304 11.8145 150.013 11.9463 150.604 12.21C151.202 12.4736 151.659 12.8369 151.976 13.2998C152.298 13.7568 152.459 14.2783 152.459 14.8643H149.928C149.928 14.6182 149.875 14.3984 149.77 14.2051C149.67 14.0059 149.512 13.8506 149.295 13.7393C149.084 13.6221 148.809 13.5635 148.469 13.5635C148.188 13.5635 147.944 13.6133 147.739 13.7129C147.534 13.8066 147.376 13.9355 147.265 14.0996C147.159 14.2578 147.106 14.4336 147.106 14.627C147.106 14.7734 147.136 14.9053 147.194 15.0225C147.259 15.1338 147.361 15.2363 147.502 15.3301C147.643 15.4238 147.824 15.5117 148.047 15.5938C148.275 15.6699 148.557 15.7402 148.891 15.8047C149.576 15.9453 150.188 16.1299 150.728 16.3584C151.267 16.5811 151.694 16.8857 152.011 17.2725C152.327 17.6533 152.485 18.1543 152.485 18.7754C152.485 19.1973 152.392 19.584 152.204 19.9355C152.017 20.2871 151.747 20.5947 151.396 20.8584C151.044 21.1162 150.622 21.3184 150.13 21.4648C149.644 21.6055 149.096 21.6758 148.486 21.6758C147.602 21.6758 146.852 21.5176 146.236 21.2012C145.627 20.8848 145.164 20.4834 144.848 19.9971C144.537 19.5049 144.382 19.001 144.382 18.4854H146.781C146.793 18.8311 146.881 19.1094 147.045 19.3203C147.215 19.5312 147.429 19.6836 147.687 19.7773C147.95 19.8711 148.234 19.918 148.539 19.918C148.867 19.918 149.14 19.874 149.356 19.7861C149.573 19.6924 149.737 19.5693 149.849 19.417C149.966 19.2588 150.024 19.0771 150.024 18.8721ZM153.725 16.8418V16.6572C153.725 15.96 153.824 15.3184 154.023 14.7324C154.223 14.1406 154.513 13.6279 154.894 13.1943C155.274 12.7607 155.743 12.4238 156.3 12.1836C156.856 11.9375 157.495 11.8145 158.216 11.8145C158.937 11.8145 159.578 11.9375 160.141 12.1836C160.703 12.4238 161.175 12.7607 161.556 13.1943C161.942 13.6279 162.235 14.1406 162.435 14.7324C162.634 15.3184 162.733 15.96 162.733 16.6572V16.8418C162.733 17.5332 162.634 18.1748 162.435 18.7666C162.235 19.3525 161.942 19.8652 161.556 20.3047C161.175 20.7383 160.706 21.0752 160.149 21.3154C159.593 21.5557 158.954 21.6758 158.233 21.6758C157.513 21.6758 156.871 21.5557 156.309 21.3154C155.752 21.0752 155.28 20.7383 154.894 20.3047C154.513 19.8652 154.223 19.3525 154.023 18.7666C153.824 18.1748 153.725 17.5332 153.725 16.8418ZM156.256 16.6572V16.8418C156.256 17.2402 156.291 17.6123 156.361 17.958C156.432 18.3037 156.543 18.6084 156.695 18.8721C156.854 19.1299 157.059 19.332 157.311 19.4785C157.562 19.625 157.87 19.6982 158.233 19.6982C158.585 19.6982 158.887 19.625 159.139 19.4785C159.391 19.332 159.593 19.1299 159.745 18.8721C159.897 18.6084 160.009 18.3037 160.079 17.958C160.155 17.6123 160.193 17.2402 160.193 16.8418V16.6572C160.193 16.2705 160.155 15.9072 160.079 15.5674C160.009 15.2217 159.895 14.917 159.736 14.6533C159.584 14.3838 159.382 14.1729 159.13 14.0205C158.878 13.8682 158.573 13.792 158.216 13.792C157.858 13.792 157.554 13.8682 157.302 14.0205C157.056 14.1729 156.854 14.3838 156.695 14.6533C156.543 14.917 156.432 15.2217 156.361 15.5674C156.291 15.9072 156.256 16.2705 156.256 16.6572ZM163.885 16.8418V16.6572C163.885 15.96 163.984 15.3184 164.184 14.7324C164.383 14.1406 164.673 13.6279 165.054 13.1943C165.435 12.7607 165.903 12.4238 166.46 12.1836C167.017 11.9375 167.655 11.8145 168.376 11.8145C169.097 11.8145 169.738 11.9375 170.301 12.1836C170.863 12.4238 171.335 12.7607 171.716 13.1943C172.103 13.6279 172.396 14.1406 172.595 14.7324C172.794 15.3184 172.894 15.96 172.894 16.6572V16.8418C172.894 17.5332 172.794 18.1748 172.595 18.7666C172.396 19.3525 172.103 19.8652 171.716 20.3047C171.335 20.7383 170.866 21.0752 170.31 21.3154C169.753 21.5557 169.114 21.6758 168.394 21.6758C167.673 21.6758 167.031 21.5557 166.469 21.3154C165.912 21.0752 165.44 20.7383 165.054 20.3047C164.673 19.8652 164.383 19.3525 164.184 18.7666C163.984 18.1748 163.885 17.5332 163.885 16.8418ZM166.416 16.6572V16.8418C166.416 17.2402 166.451 17.6123 166.521 17.958C166.592 18.3037 166.703 18.6084 166.855 18.8721C167.014 19.1299 167.219 19.332 167.471 19.4785C167.723 19.625 168.03 19.6982 168.394 19.6982C168.745 19.6982 169.047 19.625 169.299 19.4785C169.551 19.332 169.753 19.1299 169.905 18.8721C170.058 18.6084 170.169 18.3037 170.239 17.958C170.315 17.6123 170.354 17.2402 170.354 16.8418V16.6572C170.354 16.2705 170.315 15.9072 170.239 15.5674C170.169 15.2217 170.055 14.917 169.896 14.6533C169.744 14.3838 169.542 14.1729 169.29 14.0205C169.038 13.8682 168.733 13.792 168.376 13.792C168.019 13.792 167.714 13.8682 167.462 14.0205C167.216 14.1729 167.014 14.3838 166.855 14.6533C166.703 14.917 166.592 15.2217 166.521 15.5674C166.451 15.9072 166.416 16.2705 166.416 16.6572ZM176.928 14.0205V21.5H174.396V11.9902H176.77L176.928 14.0205ZM176.559 16.4111H175.873C175.873 15.708 175.964 15.0752 176.146 14.5127C176.327 13.9443 176.582 13.4609 176.91 13.0625C177.238 12.6582 177.628 12.3506 178.079 12.1396C178.536 11.9229 179.046 11.8145 179.608 11.8145C180.054 11.8145 180.461 11.8789 180.83 12.0078C181.199 12.1367 181.516 12.3418 181.779 12.623C182.049 12.9043 182.254 13.2764 182.395 13.7393C182.541 14.2021 182.614 14.7676 182.614 15.4355V21.5H180.065V15.4268C180.065 15.0049 180.007 14.6768 179.89 14.4424C179.772 14.208 179.6 14.0439 179.371 13.9502C179.148 13.8506 178.873 13.8008 178.545 13.8008C178.205 13.8008 177.909 13.8682 177.657 14.0029C177.411 14.1377 177.206 14.3252 177.042 14.5654C176.884 14.7998 176.764 15.0752 176.682 15.3916C176.6 15.708 176.559 16.0479 176.559 16.4111Z"
       fill="white"
       id="path2" />
    <mask
       id="mask0_132_76"
       style="mask-type:luminance"
       maskUnits="userSpaceOnUse"
       x="69"
       y="40"
       width="123"
       height="49">
      <path
         d="M191.034 40.5332H69V88.5332H191.034V40.5332Z"
         fill="white"
         id="path3" />
    </mask>
    <g
       mask="url(#mask0_132_76)"
       id="g11">
      <mask
         id="mask1_132_76"
         style="mask-type:luminance"
         maskUnits="userSpaceOnUse"
         x="69"
         y="40"
         width="123"
         height="49">
        <path
           d="M191.034 40.5332H69V88.5332H191.034V40.5332Z"
           fill="white"
           id="path4" />
      </mask>
      <g
         mask="url(#mask1_132_76)"
         id="g10">
        <path
           d="M68.8931 57.8325H78.0482V87.4955H68.8931V57.8325Z"
           fill="#A0A0A0"
           id="path5" />
        <path
           d="M82.9341 57.8323H91.7228V60.5573C91.7228 60.5573 93.2495 57.1009 100.512 57.0999C109.788 57.0993 111.498 63.2028 111.498 71.1386V87.4949H102.344V72.969C102.344 69.5505 102.282 65.1569 97.5824 65.1569C92.8212 65.1569 92.0893 68.8794 92.0893 72.7251V87.4949H82.9341V57.8323Z"
           fill="#A0A0A0"
           id="path6" />
        <path
           d="M116.385 52.5832C116.385 46.1127 118.032 40.6206 127.98 40.6206C129.811 40.6206 131.644 40.7421 133.352 41.1701L132.924 48.9209C131.886 48.5543 131.032 48.3106 129.933 48.3106C127.004 48.3106 125.54 49.2265 125.54 53.1326V57.832H132.314V65.1566H125.54V87.4946H116.385L116.385 52.5832Z"
           fill="#A0A0A0"
           id="path7" />
        <path
           d="M149.985 57.1008C159.139 57.1008 166.464 63.2033 166.464 72.6638C166.464 82.124 159.139 88.2269 149.985 88.2269C140.829 88.2269 133.505 82.124 133.505 72.6638C133.505 63.2033 140.829 57.1008 149.985 57.1008ZM149.985 80.1713C154.563 80.1713 157.31 77.1189 157.31 72.6638C157.31 68.2077 154.563 65.1569 149.985 65.1569C145.406 65.1569 142.662 68.2077 142.662 72.6638C142.662 77.1189 145.406 80.1713 149.985 80.1713Z"
           fill="#A0A0A0"
           id="path8" />
        <path
           d="M170.051 57.8324H179.206V60.4251C179.206 60.4251 181.594 56.6782 190.925 57.0791V65.1153C189.643 64.7492 188.361 64.5055 187.019 64.5055C180.061 64.5055 179.206 69.5116 179.206 75.4305V87.495H170.051V57.8324Z"
           fill="#A0A0A0"
           id="path9" />
        <path
           d="M68.8931 48.0571L78.048 41.7844V52.9466H68.8931V48.0571Z"
           fill="#A0A0A0"
           id="path10" />
      </g>
    </g>
  </g>
  <defs
     id="defs14">
    <filter
       id="filter0_d_132_76"
       x="0.75"
       y="0"
       width="265"
       height="145"
       filterUnits="userSpaceOnUse"
       color-interpolation-filters="sRGB">
      <feFlood
         flood-opacity="0"
         result="BackgroundImageFix"
         id="feFlood12" />
      <feColorMatrix
         in="SourceAlpha"
         type="matrix"
         values="0 0 0 0 0 0 0 0 0 0 0 0 0 0 0 0 0 0 127 0"
         result="hardAlpha"
         id="feColorMatrix12" />
      <feOffset
         dx="3"
         dy="10"
         id="feOffset12" />
      <feGaussianBlur
         stdDeviation="2.5"
         id="feGaussianBlur12" />
      <feComposite
         in2="hardAlpha"
         operator="out"
         id="feComposite12" />
      <feColorMatrix
         type="matrix"
         values="0 0 0 0 0 0 0 0 0 0 0 0 0 0 0 0 0 0 0.25 0"
         id="feColorMatrix13" />
      <feBlend
         mode="normal"
         in2="BackgroundImageFix"
         result="effect1_dropShadow_132_76"
         id="feBlend13" />
      <feBlend
         mode="normal"
         in="SourceGraphic"
         in2="effect1_dropShadow_132_76"
         result="shape"
         id="feBlend14" />
    </filter>
  </defs>
</svg>
