<svg width="327" height="170" viewBox="0 0 327 170" fill="none" xmlns="http://www.w3.org/2000/svg">
<g filter="url(#filter0_d_87_235)">
<rect x="7" width="307" height="150" rx="75" fill="white" shape-rendering="crispEdges"/>
<g clip-path="url(#clip0_87_235)">
<mask id="mask0_87_235" style="mask-type:luminance" maskUnits="userSpaceOnUse" x="60" y="40" width="201" height="70">
<path d="M260.5 40.1199H60.5V109.925H260.5V40.1199Z" fill="white"/>
</mask>
<g mask="url(#mask0_87_235)">
<path d="M60.5 38.8828L112.146 57.3227V82.6535C112.146 84.6943 110.129 86.1229 108.208 85.4387L97.3917 81.573V67.2389C97.3917 64.1656 95.4829 61.4164 92.6137 60.3359L87.5835 58.4511C86.6231 58.091 85.5907 58.7993 85.5907 59.8317V77.3712L60.5 68.4154V38.8828Z" fill="url(#paint0_linear_87_235)"/>
<path d="M112.146 62.7969C112.146 65.8942 110.213 68.6674 107.296 69.7358L73.7773 81.9811V111.489L112.146 97.4677V62.7969Z" fill="black" fill-opacity="0.24"/>
<path d="M112.146 63.9739C112.146 67.0712 110.213 69.8444 107.296 70.9129L73.7773 83.1581V112.667L112.146 98.6447V63.9739Z" fill="black" fill-opacity="0.32"/>
<path d="M112.146 62.4973C112.146 65.5946 110.213 68.3678 107.296 69.4362L73.7773 81.6815V111.19L112.146 97.168V62.4973Z" fill="url(#paint1_linear_87_235)"/>
<path opacity="0.5" d="M112.146 62.4973C112.146 65.5946 110.213 68.3678 107.296 69.4362L73.7773 81.6815V111.19L112.146 97.168V62.4973Z" fill="url(#paint2_linear_87_235)"/>
<path opacity="0.5" d="M97.3919 73.0613L85.5789 77.3831V94.6945C85.5789 95.7269 86.6113 96.4352 87.5717 96.0751L92.6138 94.1783C95.4951 93.0978 97.3919 90.3486 97.3919 87.2753V73.0613Z" fill="#B0ADFF"/>
<path d="M143.221 72.1031H141.413V61.6451C141.413 60.8195 141.471 59.8169 141.569 58.6178H141.53C141.353 59.3255 141.196 59.8169 141.059 60.1315L135.731 72.1031H134.847L129.539 60.2101C129.382 59.8563 129.225 59.3255 129.067 58.6178H129.028C129.087 59.2469 129.107 60.2494 129.107 61.6648V72.1031H127.337V56.5144H129.755L134.532 67.3853C134.905 68.2109 135.141 68.8399 135.24 69.2527H135.299C135.613 68.4075 135.869 67.7587 136.046 67.3459L140.921 56.5144H143.201V72.1031H143.221Z" fill="black"/>
<path d="M147.978 58.145C147.663 58.145 147.388 58.0271 147.172 57.8109C146.956 57.5946 146.838 57.3194 146.838 56.9852C146.838 56.651 146.956 56.3758 147.172 56.1596C147.388 55.9434 147.663 55.8254 147.978 55.8254C148.312 55.8254 148.587 55.9434 148.804 56.1596C149.02 56.3758 149.138 56.651 149.138 56.9852C149.138 57.2998 149.02 57.575 148.804 57.7912C148.587 58.0271 148.312 58.145 147.978 58.145ZM148.863 72.1022H147.074V60.9758H148.863V72.1022Z" fill="black"/>
<path d="M160.048 71.5909C159.183 72.102 158.181 72.3576 157.001 72.3576C155.409 72.3576 154.131 71.8465 153.167 70.8046C152.185 69.7628 151.713 68.426 151.713 66.7944C151.713 64.9662 152.243 63.4918 153.285 62.3714C154.327 61.2508 155.743 60.7004 157.492 60.7004C158.475 60.7004 159.34 60.8774 160.087 61.2508V63.079C159.261 62.509 158.377 62.2141 157.433 62.2141C156.293 62.2141 155.369 62.6269 154.642 63.4329C153.915 64.2388 153.541 65.32 153.541 66.6371C153.541 67.9346 153.875 68.9764 154.563 69.7234C155.251 70.4704 156.175 70.8636 157.315 70.8636C158.279 70.8636 159.203 70.549 160.048 69.9004V71.5909Z" fill="black"/>
<path d="M168.559 62.7654C168.245 62.5295 167.793 62.4115 167.203 62.4115C166.437 62.4115 165.807 62.7654 165.297 63.4927C164.785 64.2004 164.53 65.1833 164.53 66.4218V72.1029H162.741V60.9765H164.53V63.2765H164.569C164.825 62.4902 165.218 61.8808 165.729 61.4483C166.259 61.0158 166.83 60.7996 167.479 60.7996C167.95 60.7996 168.304 60.8586 168.54 60.9568V62.7654H168.559Z" fill="black"/>
<path d="M174.851 72.359C173.199 72.359 171.882 71.8478 170.919 70.806C169.936 69.7641 169.445 68.388 169.445 66.6778C169.445 64.8103 169.956 63.3556 170.978 62.2941C172 61.2522 173.376 60.7214 175.126 60.7214C176.777 60.7214 178.075 61.2326 179.018 62.2548C179.942 63.277 180.414 64.6924 180.414 66.5009C180.414 68.2701 179.903 69.7052 178.9 70.7666C177.897 71.8282 176.541 72.359 174.851 72.359ZM174.969 62.2154C173.829 62.2154 172.924 62.6086 172.256 63.3753C171.587 64.1616 171.253 65.2231 171.253 66.5992C171.253 67.9162 171.587 68.9582 172.256 69.7248C172.924 70.4914 173.829 70.865 174.969 70.865C176.129 70.865 177.013 70.4914 177.623 69.7444C178.251 68.9974 178.546 67.9359 178.546 66.5598C178.546 65.1642 178.232 64.1026 177.623 63.336C177.013 62.589 176.129 62.2154 174.969 62.2154Z" fill="black"/>
<path d="M182.556 71.6906V69.7838C183.519 70.4914 184.601 70.865 185.761 70.865C187.333 70.865 188.099 70.3342 188.099 69.2923C188.099 68.9974 188.041 68.7419 187.903 68.5453C187.765 68.3291 187.589 68.1522 187.353 67.9949C187.117 67.8376 186.861 67.7 186.547 67.5624C186.232 67.4445 185.898 67.3069 185.544 67.1692C185.053 66.9727 184.62 66.7761 184.247 66.5795C183.873 66.383 183.559 66.147 183.303 65.9112C183.047 65.6556 182.871 65.3804 182.733 65.0658C182.615 64.7514 182.537 64.3778 182.537 63.9454C182.537 63.4146 182.655 62.9624 182.89 62.5496C183.126 62.1565 183.441 61.8026 183.853 61.5471C184.267 61.2916 184.699 61.0753 185.21 60.9377C185.721 60.8001 186.252 60.7214 186.783 60.7214C187.746 60.7214 188.611 60.8787 189.377 61.2129V63.0214C188.552 62.4907 187.608 62.2154 186.547 62.2154C186.213 62.2154 185.917 62.2548 185.643 62.3334C185.367 62.412 185.151 62.5103 184.955 62.6479C184.758 62.7856 184.62 62.9428 184.502 63.1394C184.404 63.336 184.345 63.5522 184.345 63.7684C184.345 64.0633 184.404 64.2992 184.502 64.4958C184.601 64.6924 184.758 64.8693 184.974 65.0266C185.171 65.1838 185.426 65.3214 185.721 65.4394C186.016 65.5573 186.35 65.6949 186.704 65.8325C187.195 66.0291 187.647 66.206 188.021 66.4222C188.414 66.6188 188.749 66.8548 189.023 67.0906C189.299 67.3462 189.515 67.6214 189.653 67.9556C189.81 68.2898 189.869 68.6632 189.869 69.1154C189.869 69.6658 189.751 70.1376 189.495 70.5504C189.259 70.9632 188.925 71.2974 188.532 71.553C188.119 71.8282 187.667 72.0248 187.137 72.1427C186.605 72.2803 186.055 72.3393 185.465 72.3393C184.404 72.359 183.401 72.1427 182.556 71.6906Z" fill="black"/>
<path d="M197.339 72.359C195.687 72.359 194.371 71.8478 193.407 70.806C192.425 69.7641 191.933 68.388 191.933 66.6778C191.933 64.8103 192.444 63.3556 193.466 62.2941C194.489 61.2522 195.865 60.7214 197.614 60.7214C199.265 60.7214 200.563 61.2326 201.507 62.2548C202.43 63.277 202.902 64.6924 202.902 66.5009C202.902 68.2701 202.391 69.7052 201.389 70.7666C200.366 71.8282 199.029 72.359 197.339 72.359ZM197.477 62.2154C196.336 62.2154 195.432 62.6086 194.764 63.3753C194.095 64.1616 193.761 65.2231 193.761 66.5992C193.761 67.9162 194.095 68.9582 194.764 69.7248C195.432 70.4914 196.336 70.865 197.477 70.865C198.636 70.865 199.521 70.4914 200.13 69.7444C200.759 68.9974 201.054 67.9359 201.054 66.5598C201.054 65.1642 200.74 64.1026 200.13 63.336C199.501 62.589 198.617 62.2154 197.477 62.2154Z" fill="black"/>
<path d="M210.825 57.1824C210.471 56.9859 210.077 56.8876 209.645 56.8876C208.407 56.8876 207.777 57.6739 207.777 59.2466V60.9568H210.392V62.4704H207.777V72.0832H206.009V62.4704H204.101V60.9568H206.009V59.1482C206.009 57.9884 206.343 57.0645 207.011 56.3765C207.679 55.7081 208.525 55.3542 209.527 55.3542C210.077 55.3542 210.51 55.4132 210.825 55.5508V57.1824Z" fill="black"/>
<path d="M217.862 71.984C217.449 72.22 216.879 72.3379 216.191 72.3379C214.245 72.3379 213.262 71.2567 213.262 69.0747V62.4893H211.355V60.9756H213.262V58.2432L215.051 57.6731V60.9756H217.862V62.4893H215.051V68.7602C215.051 69.5072 215.169 70.0379 215.425 70.3524C215.68 70.667 216.093 70.8242 216.683 70.8242C217.135 70.8242 217.528 70.7063 217.843 70.4508V71.984H217.862Z" fill="black"/>
<path d="M127.317 95.8884V80.2996H131.622C137.107 80.2996 139.859 82.8354 139.859 87.9072C139.859 90.3055 139.092 92.2516 137.579 93.7063C136.045 95.161 134.021 95.8884 131.445 95.8884H127.317ZM129.145 81.9508V94.237H131.465C133.509 94.237 135.101 93.6866 136.242 92.5858C137.382 91.485 137.952 89.932 137.952 87.9268C137.952 83.9363 135.829 81.9312 131.583 81.9312H129.145V81.9508Z" fill="black"/>
<path d="M151.555 84.7617L146.444 97.677C145.54 99.977 144.243 101.137 142.591 101.137C142.119 101.137 141.746 101.097 141.431 100.999V99.4069C141.825 99.5445 142.159 99.6034 142.493 99.6034C143.397 99.6034 144.065 99.0727 144.518 97.9915L145.403 95.8881L141.058 84.7814H143.043L146.051 93.3522C146.091 93.4702 146.169 93.7454 146.287 94.1975H146.346C146.385 94.0206 146.464 93.7454 146.562 93.3719L149.727 84.7814H151.555V84.7617Z" fill="black"/>
<path d="M162.701 95.8885H160.912V89.539C160.912 87.1801 160.047 86.0006 158.317 86.0006C157.433 86.0006 156.686 86.3347 156.096 87.0031C155.506 87.6715 155.211 88.5168 155.211 89.539V95.8885H153.423V84.7621H155.211V86.61H155.251C156.096 85.1946 157.315 84.5066 158.907 84.5066C160.126 84.5066 161.05 84.8997 161.699 85.6861C162.347 86.4724 162.662 87.6125 162.662 89.0869V95.8885H162.701Z" fill="black"/>
<path d="M174.024 95.8887H172.235V94.1587H172.196C171.429 95.4955 170.269 96.1639 168.775 96.1639C167.675 96.1639 166.79 95.869 166.181 95.2793C165.571 94.6895 165.237 93.9229 165.237 92.94C165.237 90.8562 166.456 89.6571 168.913 89.3033L172.255 88.8315C172.255 86.9443 171.488 86.0007 169.955 86.0007C168.618 86.0007 167.399 86.4529 166.318 87.3767V85.5289C167.419 84.8409 168.677 84.4871 170.093 84.4871C172.707 84.4871 174.024 85.8631 174.024 88.6349V95.8887ZM172.255 90.2468L169.562 90.6203C168.736 90.7383 168.107 90.9349 167.694 91.2297C167.281 91.5246 167.065 92.0357 167.065 92.7827C167.065 93.3331 167.262 93.7656 167.655 94.1195C168.048 94.4733 168.559 94.6305 169.208 94.6305C170.093 94.6305 170.82 94.316 171.39 93.7066C171.96 93.0972 172.255 92.3109 172.255 91.3477V90.2468Z" fill="black"/>
<path d="M193.191 95.8885H191.421V89.4997C191.421 88.2613 191.225 87.3767 190.851 86.8262C190.478 86.2758 189.829 86.0006 188.925 86.0006C188.158 86.0006 187.509 86.3544 186.979 87.0425C186.448 87.7305 186.173 88.5758 186.173 89.539V95.8885H184.384V89.2835C184.384 87.1014 183.539 86.0006 181.848 86.0006C181.061 86.0006 180.413 86.3347 179.921 86.9835C179.41 87.6322 179.155 88.4971 179.155 89.539V95.8885H177.366V84.7621H179.155V86.5313H179.194C179.981 85.1749 181.14 84.5066 182.654 84.5066C183.421 84.5066 184.069 84.7228 184.639 85.1356C185.209 85.5681 185.583 86.1185 185.799 86.8065C186.625 85.2733 187.863 84.5066 189.495 84.5066C191.952 84.5066 193.171 86.0203 193.171 89.0475V95.8885H193.191Z" fill="black"/>
<path d="M197.476 81.9317C197.161 81.9317 196.887 81.8137 196.67 81.5975C196.454 81.3813 196.336 81.1061 196.336 80.7719C196.336 80.4377 196.454 80.1625 196.67 79.9463C196.887 79.73 197.161 79.6121 197.476 79.6121C197.81 79.6121 198.085 79.73 198.302 79.9463C198.537 80.1625 198.636 80.4377 198.636 80.7719C198.636 81.0864 198.518 81.3616 198.302 81.5779C198.085 81.8137 197.81 81.9317 197.476 81.9317ZM198.341 95.8889H196.552V84.7624H198.341V95.8889Z" fill="black"/>
<path d="M209.547 95.3775C208.681 95.8887 207.679 96.1442 206.499 96.1442C204.907 96.1442 203.629 95.6331 202.666 94.5913C201.683 93.5493 201.211 92.2126 201.211 90.581C201.211 88.7528 201.743 87.2785 202.784 86.158C203.826 85.0375 205.241 84.4871 206.991 84.4871C207.974 84.4871 208.839 84.664 209.586 85.0375V86.8657C208.76 86.2956 207.875 86.0007 206.932 86.0007C205.792 86.0007 204.868 86.4135 204.141 87.2195C203.413 88.0255 203.04 89.1067 203.04 90.4237C203.04 91.7212 203.374 92.7631 204.062 93.5101C204.75 94.2571 205.674 94.6502 206.814 94.6502C207.777 94.6502 208.701 94.3357 209.547 93.687V95.3775Z" fill="black"/>
<path d="M211.571 95.4757V93.5689C212.534 94.2766 213.615 94.6501 214.775 94.6501C216.348 94.6501 217.115 94.1193 217.115 93.0775C217.115 92.7826 217.055 92.527 216.918 92.3305C216.781 92.1142 216.603 91.9373 216.367 91.78C216.132 91.6227 215.876 91.4851 215.561 91.3475C215.247 91.2296 214.913 91.092 214.559 90.9544C214.067 90.7578 213.635 90.5612 213.261 90.3647C212.888 90.1681 212.573 89.9322 212.318 89.6963C212.063 89.4407 211.885 89.1655 211.748 88.851C211.63 88.5365 211.551 88.1629 211.551 87.7305C211.551 87.1997 211.669 86.7476 211.905 86.3348C212.141 85.9219 212.456 85.5877 212.869 85.3322C213.281 85.0767 213.714 84.8604 214.225 84.7228C214.736 84.5852 215.267 84.5066 215.797 84.5066C216.761 84.5066 217.626 84.6639 218.393 84.998V86.8065C217.567 86.2758 216.623 86.0006 215.561 86.0006C215.227 86.0006 214.933 86.0399 214.657 86.1185C214.382 86.1971 214.166 86.2955 213.969 86.4331C213.773 86.5707 213.635 86.7279 213.517 86.9245C213.419 87.1211 213.36 87.3373 213.36 87.5535C213.36 87.8484 213.419 88.0843 213.517 88.2809C213.615 88.4775 213.773 88.6544 213.969 88.8117C214.166 88.9689 214.421 89.1065 214.717 89.2245C215.011 89.3424 215.345 89.4801 215.699 89.6177C216.191 89.8142 216.643 89.9911 217.017 90.2074C217.409 90.4039 217.744 90.6399 218.019 90.8757C218.294 91.1313 218.511 91.4065 218.648 91.7407C218.805 92.0749 218.864 92.4484 218.864 92.9005C218.864 93.4509 218.746 93.9227 218.491 94.3355C218.255 94.7483 217.921 95.0825 217.527 95.3381C217.115 95.6133 216.663 95.8099 216.132 95.9279C215.601 96.0655 215.051 96.1244 214.461 96.1244C213.399 96.1441 212.417 95.9279 211.571 95.4757Z" fill="black"/>
<path d="M227.415 95.3183V93.3918C228.477 94.2371 229.676 94.6499 231.033 94.6499C232.113 94.6499 232.979 94.3747 233.627 93.8439C234.276 93.2935 234.591 92.5662 234.591 91.6423C234.591 89.5979 233.136 88.5953 230.246 88.5953H228.969V87.0816H230.187C232.763 87.0816 234.04 86.1184 234.04 84.2115C234.04 82.4423 233.057 81.5577 231.091 81.5577C229.991 81.5577 228.969 81.9313 227.985 82.6783V80.9483C228.988 80.3586 230.167 80.0637 231.524 80.0637C232.841 80.0637 233.883 80.4176 234.669 81.1056C235.455 81.7937 235.849 82.6979 235.849 83.7791C235.849 85.8235 234.807 87.1406 232.723 87.7303V87.7697C233.843 87.8876 234.748 88.2807 235.397 88.9491C236.065 89.6175 236.399 90.4825 236.399 91.485C236.399 92.8807 235.888 94.0209 234.885 94.8662C233.883 95.7311 232.566 96.1636 230.915 96.1636C229.46 96.1439 228.28 95.8687 227.415 95.3183Z" fill="black"/>
<path d="M248.135 80.4767V82.1673C247.329 81.7545 246.483 81.5382 245.599 81.5382C244.223 81.5382 243.102 82.1476 242.277 83.3861C241.451 84.6245 241.038 86.2758 241.038 88.3399H241.077C241.805 86.8655 242.984 86.1382 244.635 86.1382C245.992 86.1382 247.073 86.5707 247.879 87.4553C248.685 88.3202 249.078 89.4997 249.078 90.9544C249.078 92.4877 248.626 93.7261 247.702 94.6894C246.778 95.6526 245.619 96.1441 244.183 96.1441C242.611 96.1441 241.392 95.515 240.507 94.2765C239.623 93.0381 239.171 91.2885 239.171 89.0279C239.171 86.2954 239.76 84.1134 240.92 82.4818C242.08 80.8502 243.633 80.0442 245.54 80.0442C246.641 80.0442 247.505 80.1818 248.135 80.4767ZM244.242 87.6518C243.319 87.6518 242.571 87.9663 242.001 88.5954C241.431 89.2245 241.137 89.9518 241.137 90.7971C241.137 91.8586 241.411 92.7629 241.981 93.5295C242.552 94.2765 243.299 94.6697 244.242 94.6697C245.147 94.6697 245.874 94.3355 246.425 93.6868C246.975 93.0381 247.25 92.1928 247.25 91.1903C247.25 90.0894 246.995 89.2245 246.464 88.5954C245.953 87.9663 245.205 87.6518 244.242 87.6518Z" fill="black"/>
<path d="M251.771 95.5148V93.6277C252.833 94.3157 253.914 94.6696 255.015 94.6696C256.116 94.6696 257.001 94.355 257.669 93.726C258.337 93.0969 258.671 92.2713 258.671 91.249C258.671 90.2268 258.317 89.4209 257.629 88.8508C256.941 88.2807 255.959 87.9858 254.681 87.9858C254.249 87.9858 253.423 88.0252 252.243 88.1234V80.2996H259.792V81.9116H253.934V86.4722C254.405 86.4525 254.858 86.4328 255.251 86.4328C256.922 86.4328 258.199 86.8457 259.123 87.691C260.028 88.5362 260.499 89.6764 260.499 91.1311C260.499 92.6448 260.008 93.8439 259.025 94.7678C258.043 95.6918 256.705 96.1439 254.995 96.1439C253.561 96.1439 252.479 95.9276 251.771 95.5148Z" fill="black"/>
</g>
</g>
</g>
<defs>
<filter id="filter0_d_87_235" x="0" y="0" width="327" height="170" filterUnits="userSpaceOnUse" color-interpolation-filters="sRGB">
<feFlood flood-opacity="0" result="BackgroundImageFix"/>
<feColorMatrix in="SourceAlpha" type="matrix" values="0 0 0 0 0 0 0 0 0 0 0 0 0 0 0 0 0 0 127 0" result="hardAlpha"/>
<feOffset dx="3" dy="10"/>
<feGaussianBlur stdDeviation="5"/>
<feComposite in2="hardAlpha" operator="out"/>
<feColorMatrix type="matrix" values="0 0 0 0 0 0 0 0 0 0 0 0 0 0 0 0 0 0 0.25 0"/>
<feBlend mode="normal" in2="BackgroundImageFix" result="effect1_dropShadow_87_235"/>
<feBlend mode="normal" in="SourceGraphic" in2="effect1_dropShadow_87_235" result="shape"/>
</filter>
<linearGradient id="paint0_linear_87_235" x1="77.4933" y1="39.7381" x2="91.2263" y2="75.6867" gradientUnits="userSpaceOnUse">
<stop stop-color="#0B53CE"/>
<stop offset="1" stop-color="#7252AA"/>
</linearGradient>
<linearGradient id="paint1_linear_87_235" x1="92.9685" y1="108.605" x2="92.9685" y2="65.7549" gradientUnits="userSpaceOnUse">
<stop stop-color="#2266E3"/>
<stop offset="1" stop-color="#AE7FE2"/>
</linearGradient>
<linearGradient id="paint2_linear_87_235" x1="112.152" y1="86.8451" x2="97.4517" y2="86.8451" gradientUnits="userSpaceOnUse">
<stop stop-color="#94B9FF"/>
<stop offset="0.2878" stop-color="#94B9FF" stop-opacity="0.5236"/>
<stop offset="1" stop-color="#538FFF" stop-opacity="0"/>
</linearGradient>
<clipPath id="clip0_87_235">
<rect width="200" height="70" fill="white" transform="translate(60.5 40)"/>
</clipPath>
</defs>
</svg>
