<svg width="84" height="83" viewBox="0 0 84 83" fill="none" xmlns="http://www.w3.org/2000/svg">
<rect x="2" y="1.5" width="80" height="80" rx="20" stroke="#F09400" stroke-width="3"/>
<path d="M55.7088 24H40.3963C39.5261 24 38.6915 24.3457 38.0762 24.9611C37.4608 25.5764 37.1151 26.411 37.1151 27.2812V33.8438C37.1151 34.1338 37.2303 34.412 37.4354 34.6171C37.6406 34.8223 37.9188 34.9375 38.2088 34.9375C38.4989 34.9375 38.7771 34.8223 38.9822 34.6171C39.1874 34.412 39.3026 34.1338 39.3026 33.8438V27.2812C39.3026 26.9912 39.4178 26.713 39.6229 26.5079C39.8281 26.3027 40.1063 26.1875 40.3963 26.1875H55.7088C55.9989 26.1875 56.2771 26.3027 56.4822 26.5079C56.6874 26.713 56.8026 26.9912 56.8026 27.2812V56.8125H52.4276V49.1562C52.4276 48.8662 52.3124 48.588 52.1072 48.3829C51.9021 48.1777 51.6239 48.0625 51.3338 48.0625H44.7713C44.4813 48.0625 44.2031 48.1777 43.9979 48.3829C43.7928 48.588 43.6776 48.8662 43.6776 49.1562V56.8125H40.3963C40.1063 56.8125 39.8281 56.9277 39.6229 57.1329C39.4178 57.338 39.3026 57.6162 39.3026 57.9062C39.3026 58.1963 39.4178 58.4745 39.6229 58.6796C39.8281 58.8848 40.1063 59 40.3963 59H58.9901V27.2812C58.9901 26.411 58.6444 25.5764 58.029 24.9611C57.4137 24.3457 56.5791 24 55.7088 24ZM45.8651 56.8125V50.25H50.2401V56.8125H45.8651ZM45.8651 34.9375H41.4901V30.5625H45.8651V34.9375ZM54.6151 34.9375H50.2401V30.5625H54.6151V34.9375ZM50.2401 39.3125H54.6151V43.6875H50.2401V39.3125ZM42.026 43.6875H45.8651V39.3125H41.4901V42.6506C41.1087 41.9477 40.6333 41.3001 40.077 40.7256C38.4195 39.073 36.1744 38.1449 33.8338 38.1449C31.4933 38.1449 29.2482 39.073 27.5907 40.7256C25.9381 42.3831 25.01 44.6282 25.01 46.9688C25.01 49.3093 25.9381 51.5544 27.5907 53.2119L33.0595 58.6806C33.1612 58.7821 33.282 58.8626 33.4149 58.9174C33.5477 58.9722 33.6901 59.0003 33.8338 59C33.9776 59.0003 34.1199 58.9722 34.2528 58.9174C34.3857 58.8626 34.5065 58.7821 34.6082 58.6806L40.077 53.2119C41.2971 51.9885 42.132 50.4344 42.4784 48.7417C42.8248 47.049 42.6675 45.2918 42.026 43.6875ZM33.8338 56.3597L29.1395 51.6631C27.8956 50.4175 27.1969 48.7291 27.1969 46.9688C27.1969 45.2084 27.8956 43.52 29.1395 42.2744C29.7553 41.6572 30.4871 41.1679 31.2927 40.8345C32.0984 40.5011 32.962 40.3303 33.8338 40.3319C34.7057 40.3303 35.5693 40.5011 36.375 40.8345C37.1806 41.1679 37.9124 41.6572 38.5282 42.2744C39.7721 43.52 40.4708 45.2084 40.4708 46.9688C40.4708 48.7291 39.7721 50.4175 38.5282 51.6631L33.8338 56.3597ZM37.1151 46.9688C37.1151 47.839 36.7694 48.6736 36.154 49.2889C35.5387 49.9043 34.7041 50.25 33.8338 50.25C32.9636 50.25 32.129 49.9043 31.5137 49.2889C30.8983 48.6736 30.5526 47.839 30.5526 46.9688C30.5526 46.0985 30.8983 45.2639 31.5137 44.6486C32.129 44.0332 32.9636 43.6875 33.8338 43.6875C34.7041 43.6875 35.5387 44.0332 36.154 44.6486C36.7694 45.2639 37.1151 46.0985 37.1151 46.9688Z" fill="#F09400"/>
</svg>
