<svg width="44" height="44" viewBox="0 0 44 44" fill="none" xmlns="http://www.w3.org/2000/svg">
<path d="M21.9867 11.0859C19.8333 11.0859 17.7282 11.7245 15.9377 12.9209C14.1472 14.1173 12.7516 15.8178 11.9276 17.8072C11.1035 19.7968 10.8879 21.9861 11.308 24.0981C11.7281 26.2101 12.7651 28.1503 14.2878 29.673C15.8105 31.1955 17.7505 32.2325 19.8625 32.6526C21.9747 33.0727 24.1638 32.8571 26.1533 32.033C28.1429 31.209 29.8433 29.8135 31.0396 28.0231C32.2363 26.2324 32.8747 24.1273 32.8747 21.9739C32.8781 20.543 32.599 19.1257 32.053 17.8033C31.507 16.4805 30.7053 15.2789 29.6935 14.2672C28.6817 13.2554 27.4801 12.4535 26.1576 11.9076C24.8348 11.3617 23.4175 11.0825 21.9867 11.0859ZM21.9867 29.0643C20.5843 29.0643 19.2134 28.6485 18.0474 27.8693C16.8816 27.0904 15.9727 25.983 15.436 24.6874C14.8993 23.3917 14.7589 21.9662 15.0325 20.5906C15.3061 19.2152 15.9814 17.9517 16.9729 16.9601C17.9645 15.9686 19.2281 15.2933 20.6034 15.0197C21.979 14.7461 23.4045 14.8865 24.7002 15.4232C25.9959 15.9598 27.1032 16.8687 27.8821 18.0346C28.6613 19.2006 29.0771 20.5715 29.0771 21.9739C29.0771 23.8543 28.3301 25.658 27.0005 26.9876C25.6708 28.3173 23.8671 29.0643 21.9867 29.0643ZM35.8755 10.6345C35.8755 11.1597 35.7199 11.6732 35.428 12.1099C35.1362 12.5466 34.7214 12.887 34.2362 13.0879C33.751 13.2889 33.217 13.3415 32.7018 13.2391C32.1866 13.1366 31.7136 12.8837 31.3421 12.5123C30.9709 12.1409 30.7178 11.6677 30.6153 11.1526C30.5128 10.6374 30.5653 10.1035 30.7664 9.61824C30.9674 9.13301 31.3079 8.71825 31.7444 8.42646C32.1813 8.13463 32.6946 7.97888 33.2199 7.97888C33.9242 7.97888 34.5997 8.25867 35.0977 8.75671C35.5959 9.25471 35.8755 9.93019 35.8755 10.6345ZM43.0722 13.2901C43.1494 9.98872 41.918 6.79076 39.6464 4.39382C37.2622 2.09324 34.0628 0.832549 30.7502 0.888423C27.2979 0.729087 16.6755 0.729087 13.2232 0.888423C9.92288 0.816961 6.72705 2.04762 4.32697 4.31415C2.05547 6.7111 0.824015 9.90905 0.90124 13.2104C0.741904 16.6627 0.741904 27.2851 0.90124 30.7374C0.824015 34.0388 2.05547 37.2367 4.32697 39.6336C6.72705 41.9002 9.92288 43.1308 13.2232 43.0594C16.7286 43.2718 27.2448 43.2718 30.7502 43.0594C34.0516 43.1366 37.2495 41.9052 39.6464 39.6336C41.918 37.2367 43.1494 34.0388 43.0722 30.7374C43.2315 27.2851 43.2315 16.6627 43.0722 13.2104V13.2901ZM38.5576 34.5349C38.197 35.4484 37.6529 36.2777 36.9584 36.9722C36.264 37.6666 35.4347 38.2108 34.5211 38.5714C30.3986 39.405 26.1841 39.6907 21.9867 39.4212C17.7983 39.691 13.5924 39.4052 9.47883 38.5714C8.56549 38.2108 7.73591 37.6666 7.04158 36.9722C6.34722 36.2777 5.8029 35.4484 5.44232 34.5349C4.32697 31.7199 4.56597 25.0809 4.56597 22.0004C4.56597 18.9199 4.32697 12.2544 5.44232 9.46602C5.79273 8.54365 6.33317 7.70527 7.02856 7.00528C7.72396 6.30532 8.55877 5.75938 9.47883 5.40295C13.5924 4.56903 17.7983 4.28329 21.9867 4.55315C26.1841 4.28374 30.3986 4.56948 34.5211 5.40295C35.4347 5.76352 36.264 6.30784 36.9584 7.0022C37.6529 7.69654 38.197 8.52612 38.5576 9.43946C39.673 12.2544 39.4074 18.8934 39.4074 21.9739C39.4074 25.0544 39.673 31.7199 38.5576 34.5083V34.5349Z" fill="white"/>
</svg>
