<svg width="51" height="52" viewBox="0 0 51 52" fill="none" xmlns="http://www.w3.org/2000/svg">
<path d="M13.8215 17.4959C15.5815 17.4959 17.0082 16.0691 17.0082 14.3092C17.0082 12.5492 15.5815 11.1224 13.8215 11.1224C12.0615 11.1224 10.6348 12.5492 10.6348 14.3092C10.6348 16.0691 12.0615 17.4959 13.8215 17.4959Z" fill="white"/>
<path d="M10.6348 21.7448C10.6348 20.5715 11.5859 19.6204 12.7592 19.6204H14.8837C16.057 19.6204 17.0082 20.5715 17.0082 21.7448V38.7407C17.0082 39.914 16.057 40.8652 14.8837 40.8652H12.7592C11.5859 40.8652 10.6348 39.914 10.6348 38.7407V21.7448Z" fill="white"/>
<path d="M23.3818 40.8652H25.5063C26.6796 40.8652 27.6308 39.914 27.6308 38.7407V29.1805C27.6308 25.9938 34.0042 23.8693 34.0042 28.1183V38.7415C34.0042 39.9149 34.9553 40.8652 36.1287 40.8652H38.2532C39.4265 40.8652 40.3777 39.914 40.3777 38.7407V25.9938C40.3777 21.7448 37.1909 19.6204 32.942 19.6204C28.693 19.6204 27.6308 22.8071 27.6308 22.8071V21.7448C27.6308 20.5715 26.6796 19.6204 25.5063 19.6204H23.3818C22.2085 19.6204 21.2573 20.5715 21.2573 21.7448V38.7407C21.2573 39.914 22.2085 40.8652 23.3818 40.8652Z" fill="white"/>
<path fill-rule="evenodd" clip-rule="evenodd" d="M42.5021 2.62451C46.0222 2.62451 48.8756 5.47801 48.8756 8.99796V42.9897C48.8756 46.5097 46.0222 49.3631 42.5021 49.3631H8.51041C4.99046 49.3631 2.13696 46.5097 2.13696 42.9897V8.99796C2.13696 5.47801 4.99046 2.62451 8.51041 2.62451H42.5021ZM42.5021 6.87347C43.6755 6.87347 44.6266 7.82465 44.6266 8.99796V42.9897C44.6266 44.163 43.6755 45.1141 42.5021 45.1141H8.51041C7.3371 45.1141 6.38593 44.163 6.38593 42.9897V8.99796C6.38593 7.82465 7.3371 6.87347 8.51041 6.87347H42.5021Z" fill="white"/>
</svg>
