<svg width="64" height="63" viewBox="0 0 64 63" fill="none" xmlns="http://www.w3.org/2000/svg">
<rect x="2" y="1.5" width="60" height="60" rx="20" stroke="#F09400" stroke-width="3"/>
<path d="M32.0891 19C26.9648 19 22.6248 23.365 22.6248 28.5347C22.6248 33.9489 27.6554 39.4858 31.0391 43.3774C31.0524 43.393 31.5993 44 32.2727 44H32.3321C33.0063 44 33.5493 43.393 33.5626 43.3774C36.7377 39.7272 41.3753 33.7075 41.3753 28.5347C41.3753 23.3642 37.9901 19 32.0891 19ZM32.4024 42.3289C32.375 42.3562 32.3352 42.3867 32.3 42.4125C32.2641 42.3875 32.225 42.3562 32.1962 42.3289L31.7875 41.8586C28.5796 38.1787 24.1865 33.1387 24.1865 28.5339C24.1865 24.2119 27.8054 20.561 32.0883 20.561C37.4237 20.561 39.812 24.565 39.812 28.5339C39.812 32.0293 37.319 36.6716 32.4024 42.3289ZM32.0274 23.7306C29.439 23.7306 27.3398 25.8291 27.3398 28.4183C27.3398 31.0074 29.439 33.1059 32.0274 33.1059C34.6157 33.1059 36.7151 31.0066 36.7151 28.4183C36.7151 25.8299 34.6165 23.7306 32.0274 23.7306ZM32.0274 31.5434C30.3039 31.5434 28.8664 30.1074 28.8664 28.3839C28.8664 26.6604 30.268 25.2588 31.9915 25.2588C33.7157 25.2588 35.1166 26.6604 35.1166 28.3839C35.1173 30.1074 33.7517 31.5434 32.0274 31.5434Z" fill="#F09400"/>
</svg>
