<svg width="200" height="60" viewBox="0 0 200 60" fill="none" xmlns="http://www.w3.org/2000/svg">
<g clip-path="url(#clip0_146_816)">
<path d="M73.6996 10.7383L89.4321 10.7383L89.4321 12.552L78.8191 27.5525L89.4321 27.5525L89.4321 31.2082L73.4382 31.2082L73.4382 28.9842L83.8179 14.3658L73.6996 14.3658L73.6996 10.7383Z" fill="black"/>
<path d="M97.1496 12.7292C97.1496 15.5081 92.939 15.5081 92.939 12.7292C92.939 9.95029 97.1496 9.95029 97.1496 12.7292ZM93.2607 16.7347L93.2607 31.2084L96.8278 31.2084L96.8278 16.7347L93.2607 16.7347Z" fill="black"/>
<path d="M105.338 10.7705L105.338 31.2082L101.799 31.2082L101.799 10.7705L105.338 10.7705Z" fill="black"/>
<path d="M113.759 10.7705L113.759 31.2082L110.22 31.2082L110.22 10.7705L113.759 10.7705Z" fill="black"/>
<path d="M129.27 16.7911L132.692 16.7911L132.692 31.2045L129.33 31.2045L129.153 29.0972C128.333 30.7943 126.085 31.6107 124.476 31.6429C120.205 31.671 117.048 29.0409 117.048 23.9817C117.048 19.0111 120.354 16.4091 124.565 16.4372C126.495 16.4372 128.337 17.3421 129.157 18.7778L129.27 16.7911ZM120.615 23.9858C120.615 26.7325 122.518 28.3733 124.886 28.3733C130.501 28.3733 130.501 19.6304 124.886 19.6304C122.518 19.6304 120.615 21.239 120.615 23.9858Z" fill="black"/>
<path d="M148.071 31.2084L148.071 23.6639C148.071 21.4721 146.872 19.8032 144.592 19.8032C142.4 19.8032 140.908 21.645 140.908 23.8368L140.908 31.2044L137.369 31.2044L137.369 16.7588L140.554 16.7588L140.788 18.7173C142.252 17.2856 143.711 16.5537 145.525 16.5537C148.915 16.5537 151.638 19.0994 151.638 23.6317L151.638 31.2044L148.071 31.2044L148.071 31.2084Z" fill="black"/>
<path d="M168.026 29.3666C166.361 31.0033 164.604 31.6468 162.472 31.6468C158.29 31.6468 154.811 29.1333 154.811 24.0138C154.811 18.8984 158.29 16.3809 162.472 16.3809C164.519 16.3809 166.1 16.964 167.676 18.5163L165.424 20.885C164.575 20.125 163.522 19.7429 162.528 19.7429C160.132 19.7429 158.374 21.4963 158.374 24.0138C158.374 26.7606 160.244 28.2244 162.468 28.2244C163.61 28.2244 164.748 27.9027 165.625 27.026L168.026 29.3666Z" fill="black"/>
<path d="M173.379 25.2723C173.612 27.0579 175.164 28.3408 177.678 28.3408C178.993 28.3408 180.718 27.8421 181.539 26.9976L183.819 29.2497C182.299 30.8301 179.813 31.5902 177.622 31.5902C172.651 31.5902 169.699 28.5218 169.699 23.9009C169.699 19.5134 172.683 16.3564 177.36 16.3564C182.186 16.3564 185.198 19.3405 184.639 25.2763L173.379 25.2763L173.379 25.2723ZM181.213 22.3205C180.98 20.4504 179.516 19.5134 177.469 19.5134C175.538 19.5134 173.958 20.4504 173.435 22.3205L181.213 22.3205Z" fill="black"/>
<path d="M191.637 16.7912L191.898 18.4562C193.008 16.6746 194.5 16.4092 195.964 16.4092C197.456 16.4092 198.888 16.9923 199.676 17.7846L198.067 20.8852C197.335 20.2699 196.664 19.9482 195.494 19.9482C193.623 19.9482 191.898 20.9415 191.898 23.6038L191.898 31.2046L188.331 31.2046L188.331 16.7912L191.637 16.7912Z" fill="black"/>
<path d="M144.29 39.1078C143.453 37.4033 141.67 36.9141 139.949 36.9141C137.914 36.9299 135.673 37.861 135.673 40.1336C135.673 42.6114 137.756 43.2111 140.013 43.4794C141.48 43.6372 142.569 44.0634 142.569 45.105C142.569 46.3044 141.338 46.7621 140.028 46.7621C138.687 46.7621 137.409 46.2255 136.919 45.0103L135.183 45.9099C136.004 47.93 137.74 48.6244 139.997 48.6244C142.459 48.6244 144.637 47.567 144.637 45.105C144.637 42.4694 142.49 41.8696 140.186 41.5856C138.86 41.4277 137.724 41.1595 137.724 40.1967C137.724 39.3761 138.466 38.729 140.013 38.729C141.212 38.729 142.254 39.3287 142.632 39.96L144.29 39.1078ZM146.799 40.5597V44.6473C146.799 47.062 148.157 48.4666 150.019 48.4666C151.108 48.4666 151.849 48.0878 152.654 47.2987L152.781 48.3561H154.501V40.5597H152.591V44.5368C152.591 45.7205 151.786 46.7147 150.602 46.7147C149.372 46.7147 148.724 45.8152 148.724 44.6315V40.5597H146.799ZM160.829 46.6674C159.519 46.6674 158.62 45.6731 158.62 44.4579C158.62 43.2427 159.441 42.2484 160.829 42.2484C162.218 42.2484 163.039 43.2427 163.039 44.4579C163.039 45.6731 162.139 46.6674 160.829 46.6674ZM158.446 51.5914V47.4249C158.999 48.2772 160.214 48.5297 161.034 48.5297C163.528 48.5297 164.964 46.7305 164.964 44.4579C164.964 42.1695 163.37 40.3861 160.971 40.3861C160.087 40.3861 159.046 40.7649 158.446 41.6329L158.32 40.5597H156.521V51.5914H158.446ZM171.009 46.6674C169.699 46.6674 168.799 45.6731 168.799 44.4579C168.799 43.2427 169.62 42.2484 171.009 42.2484C172.398 42.2484 173.218 43.2427 173.218 44.4579C173.218 45.6731 172.319 46.6674 171.009 46.6674ZM168.626 51.5914V47.4249C169.178 48.2772 170.393 48.5297 171.214 48.5297C173.708 48.5297 175.144 46.7305 175.144 44.4579C175.144 42.1695 173.55 40.3861 171.151 40.3861C170.267 40.3861 169.225 40.7649 168.626 41.6329L168.499 40.5597H166.7V51.5914H168.626ZM180.541 40.4019C178.064 40.4019 176.517 42.2326 176.517 44.4579C176.517 46.699 178.032 48.5139 180.557 48.5139C183.082 48.5139 184.613 46.699 184.613 44.4579C184.613 42.2326 183.019 40.4019 180.541 40.4019ZM180.556 42.1537C181.85 42.1537 182.671 43.29 182.671 44.4579C182.671 45.6416 181.961 46.7463 180.556 46.7463C179.152 46.7463 178.441 45.6416 178.441 44.4579C178.441 43.29 179.167 42.1537 180.556 42.1537ZM186.253 40.5597V48.3403H188.179V44.237C188.179 42.8008 189.11 42.2642 190.12 42.2642C190.751 42.2642 191.114 42.4378 191.509 42.7692L192.377 41.0963C191.951 40.6702 191.178 40.3546 190.373 40.3546C189.584 40.3546 188.779 40.4966 188.179 41.4593L188.037 40.5597H186.253ZM194.695 38.5712V40.5755H193.243V42.2326H194.695V45.5942C194.695 47.5354 195.8 48.4981 197.489 48.435C198.073 48.4192 198.53 48.3245 199.083 48.1036L198.546 46.4622C198.262 46.6043 197.915 46.699 197.615 46.699C197.015 46.699 196.605 46.336 196.605 45.5942V42.2326H198.767V40.5755H196.621V38.366L194.695 38.5712Z" fill="black"/>
<path d="M12.2279 0C5.47448 0 0 5.47448 0 12.2279V47.7721C0 54.5251 5.47448 60 12.2279 60H47.7721C54.5251 60 59.9996 54.5251 59.9996 47.7721V12.2279C59.9996 5.47448 54.5251 0 47.7721 0H12.2279Z" fill="url(#paint0_linear_146_816)"/>
<path d="M14.1877 6.45773C10.0439 6.45773 6.68457 9.81707 6.68457 13.9608C6.68457 18.105 10.0439 21.4644 14.1877 21.4644H25.4775C29.6213 21.4644 32.9802 18.105 32.9802 13.9608C32.9802 9.81707 29.6213 6.45773 25.4775 6.45773H14.1877Z" fill="url(#paint1_linear_146_816)"/>
<mask id="mask0_146_816" style="mask-type:luminance" maskUnits="userSpaceOnUse" x="0" y="-1" width="60" height="61">
<path d="M0 -0.5H60V59.5H0V-0.5Z" fill="white"/>
</mask>
<g mask="url(#mask0_146_816)">
<path d="M53.6486 46.0394C53.6486 50.1831 50.2892 53.5425 46.1454 53.5425C42.0017 53.5425 38.6423 50.1831 38.6423 46.0394C38.6423 41.8956 42.0017 38.5363 46.1454 38.5363C50.2892 38.5363 53.6486 41.8956 53.6486 46.0394Z" fill="white"/>
</g>
<mask id="mask1_146_816" style="mask-type:luminance" maskUnits="userSpaceOnUse" x="0" y="-1" width="60" height="61">
<path d="M0 -0.5H60V59.5H0V-0.5Z" fill="white"/>
</mask>
<g mask="url(#mask1_146_816)">
<path d="M46.1455 6.45766H26.3793C30.4634 7.35467 32.2393 11.3531 32.2393 14.1306C32.2393 17.1337 30.1297 19.0288 30.1297 19.0288L27.6725 21.4639H27.7057L8.62559 40.2872C5.5929 43.3195 5.5929 48.2359 8.62559 51.2686C10.151 52.794 12.1532 53.5512 14.1526 53.5417C14.1644 53.5417 14.1759 53.5425 14.1874 53.5425H34.4682C30.7494 52.8133 28.0821 50.3419 27.9435 45.6053C27.8072 40.9634 34.5973 36.0088 40.7437 29.8008C46.3339 24.1553 52.1105 18.671 52.5652 17.847C53.1162 16.9484 53.6486 15.3835 53.6486 13.9608C53.6486 9.817 50.2893 6.45766 46.1455 6.45766Z" fill="white"/>
</g>
</g>
<defs>
<linearGradient id="paint0_linear_146_816" x1="53.304" y1="-10.0502" x2="3.28217" y2="75.917" gradientUnits="userSpaceOnUse">
<stop stop-color="#F29901"/>
<stop offset="0.15003" stop-color="#F29901"/>
<stop offset="0.663043" stop-color="#EFDB00"/>
<stop offset="0.836046" stop-color="#EFDB00"/>
<stop offset="1" stop-color="#EFDB00"/>
</linearGradient>
<linearGradient id="paint1_linear_146_816" x1="6.68455" y1="13.9609" x2="32.9804" y2="13.9609" gradientUnits="userSpaceOnUse">
<stop stop-color="white"/>
<stop offset="0.660842" stop-color="white"/>
<stop offset="1" stop-color="#E6E6E6"/>
</linearGradient>
<clipPath id="clip0_146_816">
<rect width="199.676" height="60" fill="white"/>
</clipPath>
</defs>
</svg>
