<svg width="100" height="100" viewBox="0 0 100 100" fill="none" xmlns="http://www.w3.org/2000/svg">
<path d="M12.5 54.1667V61.6667C12.5 66.3337 12.5 68.6675 13.4083 70.45C14.2072 72.0179 15.482 73.2929 17.0501 74.0917C18.8327 75 21.1662 75 25.8333 75H67.6858C68.8596 75 69.4467 75 70.0217 75.0804C70.5321 75.1521 71.035 75.2708 71.5233 75.435C72.0737 75.62 72.5987 75.8825 73.6487 76.4075L87.5 83.3333V30C87.5 25.3329 87.5 22.9993 86.5917 21.2167C85.7929 19.6487 84.5179 18.3739 82.95 17.5749C81.1675 16.6667 78.8337 16.6667 74.1667 16.6667H54.1667M33.8388 16.1612C38.7204 21.0427 38.7204 28.9573 33.8388 33.8388C28.9573 38.7204 21.0427 38.7204 16.1612 33.8388C11.2796 28.9573 11.2796 21.0427 16.1612 16.1612C21.0427 11.2796 28.9573 11.2796 33.8388 16.1612Z" stroke="#F09400" stroke-width="5" stroke-linecap="round" stroke-linejoin="round"/>
</svg>
