<svg width="31" height="31" viewBox="0 0 31 31" fill="none" xmlns="http://www.w3.org/2000/svg">
<path d="M28.2817 6.75V11.75L15.7817 16.75L3.28174 11.75V6.75C3.28174 6.41848 3.41343 6.10054 3.64785 5.86612C3.88228 5.6317 4.20022 5.5 4.53174 5.5H27.0317C27.3633 5.5 27.6812 5.6317 27.9156 5.86612C28.15 6.10054 28.2817 6.41848 28.2817 6.75ZM3.28174 14.4425V24.25C3.28174 24.5815 3.41343 24.8995 3.64785 25.1339C3.88228 25.3683 4.20022 25.5 4.53174 25.5H27.0317C27.3633 25.5 27.6812 25.3683 27.9156 25.1339C28.15 24.8995 28.2817 24.5815 28.2817 24.25V14.4425L15.7817 19.4425L3.28174 14.4425Z" fill="white"/>
</svg>
