<svg width="58" height="39" viewBox="0 0 58 39" fill="none" xmlns="http://www.w3.org/2000/svg">
<path d="M53.5229 38.5779H4.54897C2.46914 38.5779 0.781738 36.8905 0.781738 34.8107V18.9632H3.49571L4.10789 17.4815H5.47821L6.08882 18.957H11.4289V17.8347L11.906 18.9648H14.6781L15.1553 17.8158V18.9617H28.4238V16.5381H28.6749C28.8539 16.5444 28.9057 16.5601 28.9057 16.8583V18.9648H35.7699V18.4013C36.4715 18.7576 37.2987 18.9664 38.1762 18.9664C38.2264 18.9664 38.2751 18.9664 38.3253 18.9648H38.3174H41.2057L41.8241 17.4893H43.1944L43.7988 18.9648H49.3648V17.5615L50.2062 18.9648H54.6578V9.69744H50.2517V10.7915L49.6348 9.69744H45.1047V10.7915L44.5381 9.69744H38.421C38.3426 9.69273 38.2484 9.69116 38.1558 9.69116C37.2877 9.69116 36.4668 9.89208 35.7385 10.2515L35.7714 10.2374V9.69744H31.5521V10.2374C31.1189 9.89522 30.5664 9.68959 29.9652 9.68959C29.8914 9.68959 29.8192 9.69273 29.7486 9.69901H29.758H14.339L13.3046 12.0928L12.242 9.69901H7.38537V10.7931L6.85011 9.69901H2.70616L0.786447 14.0941V4.67604C0.786447 2.59622 2.47385 0.908813 4.55367 0.908813H53.5276C55.6075 0.908813 57.2948 2.59622 57.2948 4.67604V21.1263H54.3548C54.3078 21.1231 54.2512 21.1231 54.1963 21.1231C53.5151 21.1231 52.8825 21.3272 52.3551 21.6772L52.3676 21.6694V21.1263H48.0196C47.9725 21.1231 47.916 21.1216 47.8595 21.1216C47.2097 21.1216 46.6053 21.3256 46.1125 21.6741L46.1219 21.6678V21.1247H38.3583V21.6678C37.7586 21.3256 37.0397 21.1247 36.2753 21.1247C36.2549 21.1247 36.2345 21.1247 36.2141 21.1247H36.2172H31.0954V21.6678C30.5522 21.3178 29.8898 21.1106 29.1788 21.1106C29.0658 21.1106 28.9527 21.1153 28.8413 21.1263L28.8554 21.1247H23.1245L21.8123 22.5437L20.5848 21.1247H12.0238V30.3983H20.4247L21.7762 28.9574L23.0492 30.3983H28.2276V28.2275H28.9496C29.0077 28.2306 29.0768 28.2306 29.1458 28.2306C29.7941 28.2306 30.4141 28.1082 30.9839 27.8869L30.9494 27.8994V30.4015H35.2189V27.9858H35.4245C35.6851 27.9858 35.7118 27.9952 35.7118 28.2589V30.4031H48.6867C48.7338 30.4046 48.7903 30.4062 48.8453 30.4062C49.5893 30.4062 50.2831 30.1833 50.8607 29.8019L50.8466 29.8097V30.4031H54.9623C55.0204 30.4046 55.0895 30.4062 55.1585 30.4062C55.9292 30.4062 56.6623 30.2477 57.3278 29.9604L57.2917 29.9745V34.8123C57.2917 36.8921 55.6043 38.5795 53.5245 38.5795L53.5229 38.5779ZM33.9098 29.0987H32.3119V22.4511H35.9786C36.0838 22.4417 36.2047 22.4354 36.3287 22.4354C36.8937 22.4354 37.4306 22.5562 37.914 22.7744L37.8889 22.765C38.3802 23.035 38.7083 23.5498 38.7083 24.14C38.7083 24.1761 38.7067 24.2107 38.7052 24.2452V24.2405C38.7052 24.2578 38.7067 24.2797 38.7067 24.3002C38.7067 25.063 38.2468 25.7191 37.5875 26.0048L37.575 26.0095C37.8905 26.1225 38.1542 26.3156 38.3504 26.5652L38.3535 26.5683C38.5262 26.8524 38.6298 27.1978 38.6298 27.5651C38.6298 27.642 38.6251 27.7158 38.6173 27.7911L38.6188 27.7817V29.0971H37.024V28.2652C37.0397 28.1725 37.0491 28.0642 37.0491 27.9544C37.0491 27.5886 36.9455 27.2464 36.7682 26.956L36.7729 26.9639C36.517 26.7693 36.1921 26.6515 35.8405 26.6515C35.7589 26.6515 35.6772 26.6578 35.5988 26.6704L35.6082 26.6688H33.9098V29.0971V29.0987ZM33.9098 23.8245V25.3173H35.8405C35.8829 25.322 35.93 25.3236 35.9802 25.3236C36.2141 25.3236 36.437 25.2702 36.6348 25.176L36.6253 25.1807C36.8247 25.0505 36.955 24.8291 36.955 24.5764C36.955 24.5639 36.955 24.5529 36.9534 24.5403C36.955 24.5278 36.955 24.5152 36.955 24.5011C36.955 24.2625 36.8231 24.0537 36.6285 23.9454L36.6253 23.9438C36.4417 23.8606 36.2282 23.812 36.0022 23.812C35.9566 23.812 35.9111 23.8136 35.8656 23.8183H35.8719L33.9098 23.8245ZM19.7434 29.0971H13.4537V22.4511H19.8423L21.7966 24.6298L23.8168 22.4511H28.8915C30.6935 22.4511 31.5694 23.1684 31.5694 24.6408C31.5694 26.1398 30.6637 26.8681 28.8068 26.8681H26.8211V29.0955H23.7336L21.7778 26.8995L19.745 29.0971H19.7434ZM25.2389 23.1637L22.7996 25.7851L25.2389 28.4912V23.1637ZM15.0376 26.3894V27.7111H18.9429L20.748 25.7615L19.012 23.8245H15.036V25.0332H18.5238V26.3878L15.0376 26.3894ZM26.8211 23.8261V25.5182H28.8727C29.5006 25.5182 29.8616 25.198 29.8616 24.6392C29.8616 24.1055 29.5257 23.8245 28.89 23.8245L26.8211 23.8261ZM55.135 29.1002H52.0678V27.6718H55.1224C55.1585 27.6765 55.1993 27.6797 55.2417 27.6797C55.4379 27.6797 55.62 27.6153 55.7676 27.5054L55.766 27.507C55.8806 27.4003 55.9528 27.248 55.9528 27.0785C55.9528 27.0769 55.9528 27.0753 55.9528 27.0738C55.9528 27.0675 55.9528 27.0596 55.9528 27.0534C55.9528 26.8854 55.8774 26.7363 55.7597 26.6358C55.6279 26.5401 55.463 26.4836 55.2857 26.4836C55.2558 26.4836 55.226 26.4851 55.1978 26.4883H55.2009L54.9074 26.4789C53.4727 26.4412 51.8481 26.3972 51.8481 24.4304C51.8481 23.4729 52.4477 22.4511 54.1257 22.4511H57.2917V23.8669H54.3957C54.3596 23.8622 54.3187 23.8606 54.2764 23.8606C54.0849 23.8606 53.9059 23.9093 53.749 23.9956L53.7552 23.9925C53.6155 24.0851 53.5229 24.2436 53.5229 24.421C53.5229 24.4367 53.5229 24.4508 53.5245 24.4665V24.465V24.4822C53.5245 24.7051 53.6689 24.8935 53.8698 24.9594L53.873 24.961C54.0284 25.0096 54.2073 25.0395 54.3925 25.0395C54.4239 25.0395 54.4569 25.0379 54.4883 25.0363H54.4836L55.3453 25.0583C55.4175 25.0505 55.5023 25.0457 55.587 25.0457C56.1788 25.0457 56.7235 25.2514 57.152 25.5967L57.1473 25.5936C57.1944 25.6312 57.2352 25.6721 57.2713 25.7176L57.2729 25.7191L57.2917 28.2495C56.8349 28.78 56.1615 29.1144 55.4097 29.1144C55.3123 29.1144 55.2166 29.1081 55.124 29.0987L55.135 29.1002ZM48.9363 29.1002H45.8409V27.6718H48.9206C48.9552 27.6765 48.996 27.6797 49.0368 27.6797C49.2361 27.6797 49.4213 27.6153 49.572 27.5054L49.5689 27.507C49.6835 27.4003 49.7541 27.2464 49.7541 27.0785C49.7541 27.0769 49.7541 27.0753 49.7541 27.0738C49.7541 27.0706 49.7541 27.0659 49.7541 27.0628C49.7541 26.8933 49.6788 26.7394 49.5611 26.6358C49.4276 26.5401 49.2597 26.4836 49.0792 26.4836C49.0493 26.4836 49.0195 26.4851 48.9913 26.4883H48.9944L48.7024 26.4789C47.2725 26.4412 45.6494 26.3972 45.6494 24.4304C45.6494 23.4729 46.2459 22.4511 47.9207 22.4511H51.104V23.8669H48.1907C48.1546 23.8622 48.1138 23.8606 48.073 23.8606C47.8831 23.8606 47.7041 23.9093 47.5487 23.9956L47.555 23.9925C47.409 24.0945 47.3148 24.2609 47.3148 24.4493C47.3148 24.6816 47.4577 24.8809 47.6586 24.9641L47.6617 24.9657C47.8187 25.0144 47.9977 25.0442 48.1844 25.0442C48.2174 25.0442 48.2519 25.0426 48.2849 25.041H48.2802L49.1357 25.063C49.2079 25.0552 49.2911 25.052 49.3743 25.052C49.9707 25.052 50.5201 25.2577 50.9534 25.603L50.9486 25.5983C51.2469 25.9279 51.4305 26.3658 51.4305 26.8477C51.4305 26.9027 51.4274 26.9592 51.4227 27.0126V27.0047C51.4274 28.3907 50.5876 29.0971 48.9316 29.0971L48.9363 29.1002ZM44.8897 29.1002H39.5842V22.4495H44.885V23.823H41.1696V25.0316H44.7986V26.3863H41.1696V27.7079L44.8897 27.7142V29.0955V29.1002ZM47.982 17.6636H44.7468L44.1284 16.1818H40.8289L40.2293 17.6636H38.3708C38.319 17.6667 38.2578 17.6683 38.1966 17.6683C37.3898 17.6683 36.6473 17.3904 36.0602 16.9242L36.0681 16.9289C35.5328 16.3372 35.2063 15.5508 35.2063 14.6859C35.2063 14.5823 35.2111 14.4787 35.2205 14.3782L35.2189 14.3908C35.2111 14.3029 35.2063 14.2008 35.2063 14.0972C35.2063 13.2119 35.536 12.4051 36.0791 11.7898L36.0759 11.793C36.6363 11.3032 37.3741 11.005 38.1825 11.005C38.2908 11.005 38.3959 11.0097 38.5011 11.0207L38.4885 11.0191H40.0268V12.4365H38.5199C38.4634 12.4287 38.3975 12.424 38.33 12.424C37.9297 12.424 37.5671 12.5778 37.2956 12.8305L37.2972 12.8289C37.0083 13.1978 36.8341 13.6687 36.8341 14.1789C36.8341 14.2338 36.8357 14.2887 36.8404 14.3421V14.3343C36.8341 14.3939 36.831 14.4646 36.831 14.5352C36.831 15.0469 36.9989 15.5194 37.2815 15.9008L37.2768 15.8945C37.542 16.1111 37.8826 16.243 38.2562 16.243C38.3018 16.243 38.3457 16.2414 38.3897 16.2367H38.3834H39.096L41.3422 11.0097H43.7281L46.417 17.2884V11.0097H48.8359L51.6267 15.6371V11.0097H53.2592V17.6526H50.9926L47.9788 12.6641V17.6526L47.982 17.6636ZM42.4897 12.1414L41.3956 14.791H43.5884L42.4897 12.1414ZM27.1084 17.6604H25.5199V11.0144H29.1741C29.2871 11.0018 29.4189 10.9956 29.5524 10.9956C30.1127 10.9956 30.6449 11.1196 31.122 11.3425L31.0985 11.333C31.5835 11.6046 31.9053 12.1147 31.9053 12.7002C31.9053 12.7379 31.9037 12.774 31.9022 12.8101V12.8054V12.8541C31.9022 13.6185 31.447 14.2762 30.794 14.5713L30.7814 14.576C31.0969 14.6953 31.3622 14.8868 31.5647 15.1317L31.5678 15.1348C31.7405 15.4173 31.8441 15.7595 31.8441 16.1268C31.8441 16.2069 31.8394 16.2854 31.83 16.3639L31.8315 16.3544V17.6588H30.2289L30.2226 16.8206V16.6951C30.232 16.6244 30.2383 16.5428 30.2383 16.458C30.2383 16.1127 30.1394 15.7909 29.9668 15.5194L29.9715 15.5272C29.7156 15.3389 29.3938 15.2243 29.0454 15.2243C28.9637 15.2243 28.8821 15.2306 28.8036 15.2431L28.813 15.2415H27.1099V17.6588L27.1084 17.6604ZM27.1084 12.3973V13.8728H29.0359C29.0815 13.8775 29.1348 13.8806 29.1882 13.8806C29.4189 13.8806 29.6356 13.8273 29.8286 13.7315L29.8208 13.7347C30.0201 13.6122 30.1504 13.3956 30.1504 13.1492C30.1504 13.135 30.1504 13.1193 30.1488 13.1052C30.1504 13.0927 30.1504 13.0801 30.1504 13.066C30.1504 12.8289 30.0154 12.6233 29.8176 12.5213L29.8145 12.5197C29.6261 12.4381 29.408 12.3894 29.1772 12.3894C29.1364 12.3894 29.0956 12.391 29.0563 12.3941H29.0611L27.1084 12.3973ZM10.2877 17.6604H7.06045L6.44985 16.1786H3.14096L2.52565 17.6604H0.799005L3.64483 11.0144H6.00406L8.70547 17.3041V11.0144H11.297L13.3753 15.5209L15.2856 11.0144H17.9305V17.6573H16.298L16.2949 12.4585L13.9921 17.6588H12.5983L10.2893 12.4507V17.6588L10.2877 17.6604ZM4.78756 12.1414L3.70605 14.791H5.87534L4.78756 12.1414ZM34.4356 17.6588H32.8157V11.0144H34.4372V17.6573L34.4356 17.6588ZM24.4117 17.6588H19.1156V11.0144H24.4211V12.3957H20.7041V13.5934H24.3316V14.9574H20.701V16.2854H24.4179V17.6573L24.4117 17.6588Z" fill="white"/>
</svg>
