<svg width="57" height="36" viewBox="0 0 57 36" fill="none" xmlns="http://www.w3.org/2000/svg">
<path d="M0.195312 3.01231C0.195312 1.34765 1.54506 -0.00183105 3.20849 -0.00183105H53.6905C55.3547 -0.00183105 56.7037 1.34732 56.7037 3.01231V32.4713C56.7037 34.136 55.354 35.4854 53.6905 35.4854H3.20849C1.54436 35.4854 0.195312 34.1363 0.195312 32.4713V3.01231ZM39.7145 10.7489C38.9179 10.4501 37.6699 10.1294 36.1113 10.1294C32.1388 10.1294 29.3405 12.1299 29.3167 14.997C29.2943 17.1163 31.3144 18.2986 32.8394 19.0042C34.4042 19.7271 34.9303 20.1882 34.9229 20.8338C34.9129 21.8224 33.6732 22.2741 32.5176 22.2741C30.9085 22.2741 30.0536 22.0506 28.7334 21.4999L28.2153 21.2654L27.6511 24.5673C28.5901 24.979 30.3265 25.3357 32.1294 25.3542C36.3554 25.3542 39.0988 23.3766 39.13 20.315C39.1452 18.6372 38.0741 17.3602 35.7547 16.3076C34.3494 15.6253 33.4888 15.17 33.4979 14.4791C33.4979 13.866 34.2264 13.2104 35.8002 13.2104C37.1149 13.19 38.0672 13.4767 38.8092 13.7755L39.1695 13.9457L39.7145 10.7489ZM50.0236 10.3998H46.9171C45.9547 10.3998 45.2346 10.6625 44.8119 11.623L38.8412 25.14H43.0629C43.0629 25.14 43.7532 23.3225 43.9093 22.9235C44.3706 22.9235 48.4717 22.9298 49.058 22.9298C49.1783 23.4462 49.5472 25.14 49.5472 25.14H53.2776L50.0236 10.3998ZM45.0662 19.9066C45.3987 19.0568 46.6679 15.7836 46.6679 15.7836C46.6442 15.8228 46.9979 14.9296 47.201 14.3758L47.4728 15.6475C47.4728 15.6475 48.2426 19.1683 48.4034 19.9066H45.0662V19.9066ZM21.1148 25.1353H25.1333L27.6486 10.3857H23.6283L21.1148 25.1353ZM13.3873 18.4099L11.9778 11.6326C11.7344 10.6986 11.0286 10.4199 10.1554 10.3874H3.67273L3.62142 10.6943C5.19837 11.076 6.60852 11.6268 7.84435 12.312L11.4186 25.1226L15.6722 25.1177L22.0014 10.3965H17.7429L13.8069 20.4546L13.3875 18.4106C13.3874 18.4104 13.3874 18.4101 13.3873 18.4099Z" fill="white"/>
</svg>
