<svg width="63" height="41" viewBox="0 0 63 41" fill="none" xmlns="http://www.w3.org/2000/svg">
<g clip-path="url(#clip0_62_410)">
<path fill-rule="evenodd" clip-rule="evenodd" d="M0.0129395 4.32358C0.0129395 2.46806 1.51744 0.963867 3.37157 0.963867H59.6414C61.4963 0.963867 63 2.4677 63 4.32358V37.16C63 39.0156 61.4955 40.5198 59.6414 40.5198H3.37157C1.51665 40.5198 0.0129395 39.0159 0.0129395 37.16V4.32358ZM59.1347 20.7402C59.1347 30.1767 51.4414 37.8563 41.9856 37.8563C38.0417 37.8563 34.4059 36.5175 31.5053 34.2785C28.6066 36.5175 24.9709 37.8563 21.0268 37.8563C11.5712 37.8563 3.87827 30.1767 3.87827 20.7402C3.87827 11.3033 11.5712 3.6273 21.0268 3.6273C24.9709 3.6273 28.6066 4.96115 31.5053 7.20337C34.4059 4.96115 38.0417 3.6273 41.9856 3.6273C51.4414 3.6273 59.1347 11.3033 59.1347 20.7402ZM41.9856 5.1576C38.5071 5.1576 35.2957 6.29499 32.7014 8.21438C35.0544 10.3999 36.7946 13.238 37.6261 16.4365H36.0367C35.2225 13.6087 33.6308 11.1122 31.5053 9.19093C29.3822 11.1122 27.7893 13.6087 26.9781 16.4365H25.3864C26.2199 13.238 27.9601 10.3999 30.3131 8.21438C27.7172 6.29499 24.507 5.1576 21.0268 5.1576C12.4045 5.1576 5.41467 12.1332 5.41467 20.7402C5.41467 29.3449 12.4045 36.3227 21.0268 36.3227C24.507 36.3227 27.7172 35.1853 30.3131 33.2661C28.099 31.2081 26.4286 28.5715 25.5457 25.6036H27.1527C28.0065 28.2023 29.5222 30.496 31.5053 32.2892C33.4907 30.496 35.0083 28.2023 35.8621 25.6036H37.4688C36.5843 28.5715 34.9143 31.2081 32.7014 33.2661C35.2957 35.1853 38.5071 36.3227 41.9856 36.3227C50.6079 36.3227 57.5979 29.3449 57.5979 20.7402C57.5979 12.1332 50.6079 5.1576 41.9856 5.1576ZM14.7077 17.0259H12.2078L10.6455 21.6742L10.5804 17.0259H8.26368L7.00609 24.5362H8.51371L9.48201 18.7984L9.61723 24.5362H10.7156L12.7741 18.7642L11.8518 24.5362H13.462L14.7077 17.0259ZM17.7021 21.8144C17.5328 21.7972 17.459 21.7905 17.3427 21.7905C16.4289 21.7905 15.9686 22.1027 15.9686 22.7176C15.9686 23.0987 16.1945 23.341 16.5436 23.341C17.2008 23.341 17.6729 22.7176 17.7021 21.8144ZM18.8723 24.5362H17.5377L17.5687 23.9027C17.1613 24.4031 16.6189 24.6424 15.8817 24.6424C15.0072 24.6424 14.4118 23.961 14.4118 22.9755C14.4118 21.4863 15.4503 20.6206 17.2367 20.6206C17.4197 20.6206 17.6542 20.6377 17.8937 20.6684C17.9435 20.465 17.9555 20.3798 17.9555 20.2704C17.9555 19.8674 17.6763 19.7154 16.9234 19.7154C16.1365 19.7051 15.4863 19.9017 15.2193 19.9904C15.2365 19.8879 15.4436 18.6174 15.4436 18.6174C16.2444 18.3818 16.7746 18.293 17.3701 18.293C18.7527 18.293 19.4851 18.9111 19.4835 20.0827C19.4851 20.3968 19.4337 20.7844 19.3533 21.2953C19.213 22.1779 18.9136 24.0736 18.8723 24.5362ZM39.9054 16.8414C37.7715 16.8414 36.2792 18.7165 36.2792 21.4012C36.2792 23.3956 37.3594 24.6424 39.0927 24.6424C39.5374 24.6424 39.9223 24.5841 40.5144 24.4203L40.7968 22.7108C40.2646 22.9722 39.8268 23.0967 39.4292 23.0967C38.4933 23.0967 37.9285 22.4068 37.9285 21.2676C37.9285 19.613 38.7692 18.4533 39.9718 18.4533C40.4185 18.4533 40.836 18.5696 41.4108 18.8599L41.6744 17.2308C41.4384 17.1387 40.6084 16.8414 39.9054 16.8414ZM44.5458 21.8144C44.3781 21.7972 44.3029 21.7905 44.1847 21.7905C43.2726 21.7905 42.8106 22.1027 42.8106 22.7176C42.8106 23.0987 43.0366 23.341 43.3893 23.341C44.0447 23.341 44.5186 22.7176 44.5458 21.8144ZM45.7162 24.5362H44.3835L44.4142 23.9027C44.0052 24.4031 43.461 24.6424 42.725 24.6424C41.8525 24.6424 41.2535 23.961 41.2535 22.9755C41.2535 21.4863 42.2957 20.6206 44.0804 20.6206C44.2634 20.6206 44.4979 20.6377 44.7377 20.6684C44.7868 20.465 44.7991 20.3798 44.7991 20.2704C44.7991 19.8674 44.5201 19.7154 43.7688 19.7154C42.9802 19.7051 42.3317 19.9017 42.0647 19.9904C42.08 19.8879 42.2872 18.6174 42.2872 18.6174C43.0896 18.3818 43.6199 18.293 44.212 18.293C45.5965 18.293 46.329 18.9111 46.3271 20.0827C46.3305 20.3968 46.2776 20.7844 46.197 21.2953C46.0585 22.1779 45.7576 24.0736 45.7162 24.5362ZM26.7863 23.0915C26.6784 23.1293 26.5364 23.1495 26.3534 23.1495C25.9701 23.1495 25.8008 23.0131 25.8008 22.697C25.8043 22.5025 26.0695 21.0578 26.2544 19.8981H27.0806L27.2997 18.4294H26.4766L26.6631 17.5076H25.0631C25.0631 17.5076 24.4575 21.1022 24.3668 21.6708C24.2641 22.3215 24.1342 23.0301 24.1442 23.2999C24.1442 24.1693 24.5927 24.6424 25.4156 24.6424C25.7889 24.6424 26.1324 24.5807 26.5744 24.4443L26.7863 23.0915ZM31.711 24.3964C31.16 24.5639 30.6293 24.6424 30.0683 24.6424C28.2747 24.6387 27.3407 23.7048 27.3407 21.9168C27.3407 19.8299 28.5299 18.293 30.1435 18.293C31.4627 18.293 32.3065 19.1519 32.3065 20.5044C32.3065 20.9518 32.2467 21.3873 32.1078 22.0074H28.9217C28.8139 22.89 29.3822 23.259 30.3131 23.259C30.886 23.259 31.4013 23.1428 31.9761 22.8765L31.711 24.3964ZM30.8108 20.7744C30.8211 20.648 30.98 19.6812 30.0663 19.6812C29.5564 19.6812 29.1903 20.0724 29.0433 20.7744H30.8108ZM20.1097 20.3593C20.1097 21.133 20.4826 21.6641 21.3348 22.0654C21.9868 22.3727 22.0877 22.4614 22.0877 22.7401C22.0877 23.1188 21.8002 23.2897 21.162 23.2897C20.6829 23.2897 20.2346 23.2179 19.7194 23.0508C19.7194 23.0508 19.5074 24.3964 19.4971 24.4615C19.8651 24.54 20.1901 24.6148 21.174 24.6424C22.873 24.6424 23.6568 23.995 23.6568 22.6015C23.6568 21.7598 23.3298 21.2714 22.5221 20.9005C21.8482 20.5898 21.7695 20.5215 21.7695 20.2363C21.7695 19.905 22.0381 19.7376 22.5599 19.7376C22.8746 19.7376 23.3075 19.7719 23.7148 19.8299L23.9443 18.4125C23.5267 18.3476 22.8953 18.293 22.5273 18.293C20.7256 18.293 20.1028 19.2305 20.1097 20.3593ZM54.7848 24.5362H53.2606L53.3374 23.9678C52.8942 24.4375 52.441 24.6424 51.8523 24.6424C50.6816 24.6424 49.9084 23.6364 49.9084 22.1099C49.9084 20.0757 51.1075 18.3646 52.5277 18.3646C53.1509 18.3646 53.6263 18.6174 54.0664 19.1963L54.4221 17.0259H56.0104L54.7848 24.5362ZM52.4084 23.1259C53.1578 23.1259 53.6866 22.2769 53.6866 21.0679C53.6866 20.2909 53.3872 19.8707 52.8324 19.8707C52.1018 19.8707 51.5834 20.7195 51.5834 21.9201C51.5834 22.7209 51.8608 23.1259 52.4084 23.1259ZM47.441 18.4294C47.2392 20.3183 46.8816 22.2325 46.6026 24.1249L46.5289 24.5362H48.1375C48.7142 20.8016 48.8543 20.0724 49.7561 20.1645C49.8996 19.3977 50.1666 18.7302 50.3685 18.3921C49.6931 18.2518 49.3163 18.6345 48.8255 19.3569C48.8647 19.0426 48.9349 18.7402 48.9195 18.4294H47.441ZM33.3675 18.4294C33.1653 20.3183 32.8061 22.2325 32.5272 24.1249L32.4535 24.5362H34.0636C34.6403 20.8016 34.7789 20.0724 35.6806 20.1645C35.8261 19.3977 36.0947 18.7302 36.2934 18.3921C35.6208 18.2518 35.2413 18.6345 34.7497 19.3569C34.7892 19.0426 34.8591 18.7402 34.8456 18.4294H33.3675Z" fill="white"/>
</g>
<defs>
<clipPath id="clip0_62_410">
<rect width="62.9871" height="39.5559" fill="white" transform="translate(0.0129395 0.963867)"/>
</clipPath>
</defs>
</svg>
