<svg width="59" height="38" viewBox="0 0 59 38" fill="none" xmlns="http://www.w3.org/2000/svg">
<path d="M11.7367 0.434825C11.2222 0.434822 10.6863 0.549707 10.1596 0.772923C9.63283 0.996138 9.12559 1.32331 8.66681 1.73576C8.20802 2.14821 7.80668 2.63786 7.48569 3.17676C7.1647 3.71565 6.93035 4.29324 6.79602 4.87654L0.164575 33.6726C0.0498686 34.1707 0.0228221 34.6639 0.0849764 35.1241C0.147131 35.5843 0.29727 36.0024 0.526822 36.3547C0.756375 36.7069 1.06084 36.9863 1.42285 37.1769C1.78485 37.3675 2.1973 37.4656 2.63664 37.4656H47.4596C47.8486 37.4656 48.2538 37.3787 48.6521 37.2099C49.0504 37.0412 49.4339 36.7938 49.7808 36.4819C50.1276 36.1701 50.4311 35.7998 50.6738 35.3924C50.9165 34.9849 51.0937 34.5482 51.1953 34.1072L58.0161 4.48896C58.1387 3.95656 58.1676 3.42937 58.1011 2.9375C58.0347 2.44563 57.8742 1.99871 57.6289 1.62224C57.3835 1.24578 57.0581 0.947159 56.6712 0.743421C56.2842 0.539683 55.8434 0.434823 55.3738 0.434825H11.7367ZM13.5509 9.91742H15.3571L14.1542 15.7133C13.9537 16.6958 13.489 17.4503 12.768 17.986C12.0536 18.5127 11.1323 18.777 10.0041 18.777C8.94243 18.777 8.16422 18.5072 7.66751 17.966C7.32303 17.5815 7.15176 17.093 7.15176 16.5025C7.15176 16.2583 7.181 15.9958 7.23926 15.7135L8.44121 9.918H10.2564L9.07113 15.6476C9.03723 15.7915 9.02075 15.939 9.02208 16.0869C9.02012 16.3804 9.09313 16.6209 9.24065 16.8086C9.45565 17.0876 9.80461 17.2258 10.2905 17.2258C10.849 17.2258 11.3092 17.0893 11.6665 16.8139C12.0237 16.5404 12.257 16.1524 12.3617 15.6474L13.5509 9.91742ZM36.8725 10.2237H40.5979C41.3139 10.2237 41.8681 10.3859 42.2488 10.7047C42.6278 11.0276 42.8176 11.4903 42.8176 12.0936L42.8176 12.1118C42.8176 12.2266 42.8101 12.3561 42.7991 12.4963C42.7802 12.6387 42.7559 12.7804 42.7264 12.921C42.5622 13.7193 42.1814 14.3609 41.5929 14.8474C41.002 15.3322 40.3024 15.5764 39.4969 15.5764H37.4991L36.8814 18.6073H35.1517L36.8725 10.2237ZM22.2253 11.5488H23.6597L23.3918 12.8043H21.9575L22.2253 11.5488ZM38.3085 11.6598L37.8036 14.1186H39.4602C39.892 14.1186 40.2347 14.0182 40.4848 13.8197C40.7328 13.6192 40.8968 13.313 40.9875 12.8975C41.002 12.8208 41.0112 12.7515 41.0222 12.6878C41.0277 12.6277 41.0349 12.5673 41.0349 12.5093C41.0349 12.2121 40.9294 11.9971 40.7177 11.8621C40.5064 11.7252 40.1747 11.6598 39.7155 11.6598H38.3085ZM27.0516 13.2985C27.6903 13.2985 28.197 13.4772 28.568 13.8342C28.9387 14.1934 29.1245 14.6779 29.1245 15.2941C29.1245 15.3996 29.1165 15.5219 29.1027 15.6531C29.0868 15.7825 29.067 15.9114 29.0435 16.0396C28.8787 16.8671 28.5207 17.5268 27.9675 18.0097C27.4143 18.4962 26.7498 18.7385 25.9753 18.7385C25.3338 18.7387 24.8289 18.5637 24.4579 18.212C24.086 17.8565 23.8983 17.3773 23.8965 16.7686C23.8965 16.6646 23.9028 16.5463 23.9167 16.4168C23.9304 16.2856 23.9477 16.1581 23.9722 16.0396C24.1407 15.1994 24.4999 14.5324 25.0529 14.0402C25.6052 13.5462 26.2714 13.2985 27.0516 13.2985ZM18.6622 13.3002C19.2017 13.3002 19.5907 13.457 19.8351 13.7722C20.0756 14.0875 20.1413 14.5232 20.0274 15.0827L19.321 18.6075H18.0033L18.641 15.4126C18.7068 15.0827 18.6885 14.8367 18.5873 14.678C18.4872 14.5194 18.2958 14.4412 18.0195 14.4412C17.6806 14.4412 17.3953 14.5467 17.1629 14.7564C16.9296 14.9679 16.7756 15.2613 16.6999 15.6349L16.1122 18.6075H14.7917L15.8264 13.4315H17.1085L16.9618 14.1787L17.1458 13.9654C17.5615 13.5207 18.0663 13.3002 18.6622 13.3002ZM33.366 13.3002C33.9054 13.3002 34.295 13.457 34.5377 13.7722C34.7768 14.0875 34.8457 14.5232 34.7292 15.0827L34.0255 18.6075H32.706L33.3442 15.4126C33.4097 15.0827 33.3912 14.8367 33.291 14.678C33.187 14.5194 32.9993 14.4412 32.7243 14.4412C32.3851 14.4412 32.101 14.5467 31.8658 14.7564C31.6326 14.9679 31.4776 15.2613 31.4048 15.6349L30.8141 18.6075H29.4955L30.5297 13.4315H31.8131L31.6673 14.1787L31.8492 13.9654C32.2652 13.5207 32.7717 13.3002 33.366 13.3002ZM21.7778 13.4332H23.1995L22.0858 18.6057H20.6669L21.7778 13.4332ZM49.7105 13.4332H50.5087L50.5946 16.9271L52.0906 13.4333H53.6055L50.5597 19.6082C50.0128 20.7709 49.4917 21.4487 49.1857 21.7639C48.8793 22.0758 48.2723 22.8011 46.8106 22.7463L46.9368 21.859C48.1668 21.4798 48.8318 19.772 49.2112 19.0157L48.759 13.446L49.7105 13.4332ZM44.4642 13.7192C44.9581 13.7262 45.3297 13.9605 45.7227 14.268L46.3243 13.8542L47.7425 13.7304L46.6688 18.6077L45.0339 18.5657L44.7971 18.285C40.6416 20.0529 41.9028 14.6852 43.412 13.9854C43.8275 13.7927 44.1679 13.7151 44.4642 13.7192ZM26.8248 14.4414C26.431 14.4414 26.1101 14.5797 25.8588 14.8568C25.6053 15.134 25.4257 15.5531 25.3127 16.1108C25.2972 16.1965 25.2844 16.2822 25.2726 16.366C25.2636 16.4517 25.2609 16.5318 25.2627 16.6048C25.2627 16.922 25.3438 17.1662 25.5069 17.3392C25.6691 17.5125 25.8987 17.598 26.2004 17.598C26.596 17.5978 26.9166 17.4611 27.1673 17.1878C27.418 16.9163 27.5973 16.5043 27.7068 15.9558C27.7232 15.8701 27.7378 15.7808 27.7468 15.6916C27.7558 15.6041 27.7595 15.5221 27.7595 15.4473C27.7595 15.1283 27.6783 14.8806 27.5153 14.7056C27.3533 14.5289 27.1227 14.4414 26.8248 14.4414ZM44.8612 14.83C44.4394 14.8407 43.9587 15.3162 43.729 15.9956C43.4626 16.7721 43.6268 17.5193 44.086 17.6616C44.5454 17.8073 45.132 17.2953 45.3945 16.5206C45.6624 15.7442 45.4967 14.9969 45.0375 14.8547C44.9805 14.8365 44.9215 14.8285 44.8612 14.83ZM33.5801 20.9179C33.6732 20.9218 33.7653 20.9412 33.854 20.9804L34.4105 21.2261L34.7237 21.1006L34.6946 21.3516L36.7227 22.2471L35.6257 24.9517C35.5346 25.4056 35.1445 25.6315 34.4555 25.6315H31.2039L30.4424 28.4201C30.3983 28.5695 30.4605 28.6461 30.6245 28.6461H31.2643L31.0292 29.5117H29.4027C28.7784 29.5117 28.5187 29.324 28.6217 28.9468L30.7739 21.0041H32.2942L32.2231 21.6221C32.2231 21.6221 32.9281 20.8907 33.5801 20.9179ZM34.6946 21.3516L34.4105 21.2261L32.163 22.1268L31.8566 23.1985C31.8566 23.1985 32.2831 22.8907 32.9958 22.8797C33.7065 22.8686 34.5177 22.8797 34.5177 22.8797L34.6946 21.3516ZM44.0895 20.9659H45.7192L45.7884 21.5671C45.7774 21.7202 45.8686 21.7933 46.0618 21.7933H46.3498L46.0585 22.8119H44.8609C44.4038 22.8354 44.1686 22.6606 44.1466 22.2834L44.0895 20.9659ZM38.3485 20.9804L38.6912 22.1868L40.4247 21.0406L40.3499 21.4836C40.3499 21.4836 41.2354 21.0406 41.8734 21.0406H44.0166L43.676 22.2471H43.3388L41.7221 27.9373H42.0593L41.7386 29.0672H41.4014L41.2611 29.5574H39.5825L39.7226 29.0672H36.4111L36.7338 27.9373H37.0656L38.6838 22.2471L38.3485 20.9804ZM26.6898 21.0116H28.4147L28.0552 21.6456H30.1234L29.8609 22.6173H27.3997C27.1163 23.0437 26.7673 23.244 26.3479 23.2203H25.0659L25.3446 22.2035H25.5926C25.8203 22.2035 25.9736 22.1268 26.0456 21.9756L26.6898 21.0116ZM40.2186 22.2471L39.7777 23.7871C39.7777 23.7871 40.5325 23.4973 41.1831 23.4153C41.3267 22.8778 41.5144 22.2471 41.5144 22.2471H40.2186ZM43.6121 23.1512H48.8901L48.5803 24.2449H46.8999L46.6117 25.2616H48.2908L47.9789 26.3534H46.1091L45.6862 26.9933H46.6016L46.8128 28.2745C46.8379 28.402 46.9509 28.464 47.1443 28.464H47.4284L47.1298 29.519H46.1237C45.6022 29.5447 45.3329 29.3697 45.3107 28.9925L45.0683 27.8223L44.2355 29.0672C44.0385 29.419 43.7358 29.5829 43.3278 29.5574H41.7914L42.0901 28.502H42.5696C42.7666 28.502 42.9304 28.4148 43.0779 28.2378L44.3815 26.3534H42.701L43.0126 25.2616H44.8352L45.1249 24.2449H43.3007L43.6121 23.1512ZM25.0614 23.5958H29.5932L29.3042 24.6512H27.4816L27.2036 25.6697H28.977L28.6882 26.7251H26.9148L26.5028 28.2304C26.4008 28.482 26.535 28.595 26.9031 28.5695H28.3483L28.0805 29.5504H25.3056C24.7797 29.5504 24.5992 29.2495 24.7642 28.6462L25.2909 26.7253H24.1574L24.4454 25.6699H25.5791L25.857 24.6514H24.7734L25.0614 23.5958ZM31.6961 23.822L31.4811 24.6127H33.7958C33.9851 24.6384 34.0912 24.5637 34.1037 24.3867L34.2605 23.822H31.6961ZM39.5735 24.509L39.1307 26.1221C39.1307 26.1221 39.9672 25.7101 40.5412 25.6756C40.7069 25.0521 40.8729 24.5091 40.8729 24.5091L39.5735 24.509ZM32.0663 25.8959H33.5445L33.5168 26.5356H33.9103C34.1092 26.5356 34.2079 26.4719 34.2079 26.3461L34.3244 25.9324H35.5531L35.3891 26.5356C35.2502 27.0386 34.8824 27.3011 34.2844 27.3268H33.497L33.4933 28.4201C33.4789 28.5952 33.6371 28.6845 33.9633 28.6845H34.7033L34.4645 29.5504H32.6893C32.1917 29.5739 31.9476 29.3369 31.9529 28.834L32.0663 25.8959ZM38.9357 26.7671L38.602 27.9373H39.8977L40.2292 26.7671H38.9357Z" fill="white"/>
</svg>
