<svg width="30" height="31" viewBox="0 0 30 31" fill="none" xmlns="http://www.w3.org/2000/svg">
<path fill-rule="evenodd" clip-rule="evenodd" d="M15 30.5C23.2842 30.5 30 23.7842 30 15.5C30 7.21572 23.2842 0.5 15 0.5C6.71572 0.5 0 7.21572 0 15.5C0 23.7842 6.71572 30.5 15 30.5ZM16.125 11C16.125 10.3787 15.6213 9.875 15 9.875C14.3787 9.875 13.875 10.3787 13.875 11V14.375H10.5C9.87868 14.375 9.375 14.8787 9.375 15.5C9.375 16.1213 9.87868 16.625 10.5 16.625H13.875V20C13.875 20.6213 14.3787 21.125 15 21.125C15.6213 21.125 16.125 20.6213 16.125 20V16.625H19.5C20.1213 16.625 20.625 16.1213 20.625 15.5C20.625 14.8787 20.1213 14.375 19.5 14.375H16.125V11Z" fill="white"/>
</svg>
