<svg width="35" height="35" viewBox="0 0 35 35" fill="none" xmlns="http://www.w3.org/2000/svg">
<path d="M17.5 0C7.8575 0 0 7.8575 0 17.5C0 27.1425 7.8575 35 17.5 35C27.1425 35 35 27.1425 35 17.5C35 7.8575 27.1425 0 17.5 0ZM25.865 13.475L15.9425 23.3975C15.6975 23.6425 15.365 23.7825 15.015 23.7825C14.665 23.7825 14.3325 23.6425 14.0875 23.3975L9.135 18.445C8.6275 17.9375 8.6275 17.0975 9.135 16.59C9.6425 16.0825 10.4825 16.0825 10.99 16.59L15.015 20.615L24.01 11.62C24.5175 11.1125 25.3575 11.1125 25.865 11.62C26.3725 12.1275 26.3725 12.95 25.865 13.475Z" fill="#F09400"/>
</svg>
